<svg width="26" height="26" viewBox="0 0 26 26" fill="none" xmlns="http://www.w3.org/2000/svg">
<g id="bell">
<path id="Vector" d="M13 23.8333C14.1916 23.8333 15.1666 22.8583 15.1666 21.6667H10.8333C10.8333 22.8583 11.8083 23.8333 13 23.8333ZM19.5 17.3333V11.9167C19.5 8.59084 17.7341 5.80668 14.625 5.07001V4.33334C14.625 3.43418 13.8991 2.70834 13 2.70834C12.1008 2.70834 11.375 3.43418 11.375 4.33334V5.07001C8.27665 5.80668 6.49998 8.58001 6.49998 11.9167V17.3333L4.33331 19.5V20.5833H21.6666V19.5L19.5 17.3333ZM17.3333 18.4167H8.66665V11.9167C8.66665 9.23001 10.3025 7.04168 13 7.04168C15.6975 7.04168 17.3333 9.23001 17.3333 11.9167V18.4167Z" fill="white"/>
<circle id="Ellipse 38" cx="21.5" cy="6.5" r="3.5" fill="#FB6039"/>
</g>
</svg>
