<svg width="14" height="16" viewBox="0 0 14 16" fill="none" xmlns="http://www.w3.org/2000/svg">
<path d="M1.06176 6.2695H12.9444" stroke="white" stroke-width="2" stroke-linecap="round" stroke-linejoin="round"/>
<path fill-rule="evenodd" clip-rule="evenodd" d="M3.03859 8.87315C3.03859 8.32087 3.48631 7.87315 4.03859 7.87315H4.04477C4.59705 7.87315 5.04477 8.32087 5.04477 8.87315C5.04477 9.42544 4.59705 9.87315 4.04477 9.87315H4.03859C3.48631 9.87315 3.03859 9.42544 3.03859 8.87315ZM7.00308 7.87315C6.45079 7.87315 6.00308 8.32087 6.00308 8.87315C6.00308 9.42544 6.45079 9.87315 7.00308 9.87315H7.00925C7.56154 9.87315 8.00925 9.42544 8.00925 8.87315C8.00925 8.32087 7.56154 7.87315 7.00925 7.87315H7.00308ZM9.96138 7.87315C9.4091 7.87315 8.96138 8.32087 8.96138 8.87315C8.96138 9.42544 9.4091 9.87315 9.96138 9.87315H9.96756C10.5198 9.87315 10.9676 9.42544 10.9676 8.87315C10.9676 8.32087 10.5198 7.87315 9.96756 7.87315H9.96138ZM9.96138 10.4641C9.4091 10.4641 8.96138 10.9118 8.96138 11.4641C8.96138 12.0164 9.4091 12.4641 9.96138 12.4641H9.96756C10.5198 12.4641 10.9676 12.0164 10.9676 11.4641C10.9676 10.9118 10.5198 10.4641 9.96756 10.4641H9.96138ZM6.00308 11.4641C6.00308 10.9118 6.45079 10.4641 7.00308 10.4641H7.00925C7.56154 10.4641 8.00925 10.9118 8.00925 11.4641C8.00925 12.0164 7.56154 12.4641 7.00925 12.4641H7.00308C6.45079 12.4641 6.00308 12.0164 6.00308 11.4641ZM4.03859 10.4641C3.48631 10.4641 3.03859 10.9118 3.03859 11.4641C3.03859 12.0164 3.48631 12.4641 4.03859 12.4641H4.04477C4.59705 12.4641 5.04477 12.0164 5.04477 11.4641C5.04477 10.9118 4.59705 10.4641 4.04477 10.4641H4.03859Z" fill="#2969FF"/>
<path d="M9.69581 1.33333V3.52719" stroke="white" stroke-width="2" stroke-linecap="round" stroke-linejoin="round"/>
<path d="M4.31034 1.33333V3.52719" stroke="white" stroke-width="2" stroke-linecap="round" stroke-linejoin="round"/>
<path fill-rule="evenodd" clip-rule="evenodd" d="M9.82551 2.38613H4.18064C2.22285 2.38613 1 3.47675 1 5.48148V11.5146C1 13.5508 2.22285 14.6667 4.18064 14.6667H9.81933C11.7833 14.6667 13 13.5697 13 11.565V5.48148C13.0062 3.47675 11.7895 2.38613 9.82551 2.38613Z" stroke="white" stroke-width="2" stroke-linecap="round" stroke-linejoin="round"/>
</svg>
