<svg width="26" height="26" viewBox="0 0 26 26" fill="none" xmlns="http://www.w3.org/2000/svg">
<g id="Frame">
<path id="Vector" d="M21.5312 11.3307C21.4235 11.3307 21.3202 11.2879 21.244 11.2117C21.1678 11.1355 21.125 11.0322 21.125 10.9245V9.75C21.125 7.59512 20.269 5.52849 18.7452 4.00476C17.2215 2.48102 15.1549 1.625 13 1.625C10.8451 1.625 8.77849 2.48102 7.25476 4.00476C5.73102 5.52849 4.875 7.59512 4.875 9.75V10.9245C4.875 11.0322 4.8322 11.1355 4.75601 11.2117C4.67983 11.2879 4.57649 11.3307 4.46875 11.3307C4.36101 11.3307 4.25767 11.2879 4.18149 11.2117C4.1053 11.1355 4.0625 11.0322 4.0625 10.9245V9.75C4.0625 7.37963 5.00413 5.10634 6.68023 3.43023C8.35634 1.75413 10.6296 0.8125 13 0.8125C15.3704 0.8125 17.6437 1.75413 19.3198 3.43023C20.9959 5.10634 21.9375 7.37963 21.9375 9.75V10.9245C21.9375 11.0322 21.8947 11.1355 21.8185 11.2117C21.7423 11.2879 21.639 11.3307 21.5312 11.3307Z" fill="black"/>
<path id="Vector_2" d="M22.75 12.1875V14.2188C22.75 14.7575 22.536 15.2741 22.1551 15.6551C21.7741 16.036 21.2575 16.25 20.7188 16.25H19.5V10.1562H20.7188C20.788 10.1563 20.8572 10.1603 20.9259 10.1684C21.4261 10.2191 21.8897 10.4537 22.2267 10.8268C22.5638 11.1998 22.7502 11.6847 22.75 12.1875Z" fill="#38515C"/>
<path id="Vector_3" d="M19.5 10.1562V15.0312C19.5 16.7552 18.8152 18.4085 17.5962 19.6274C16.3772 20.8464 14.7239 21.5312 13 21.5312C11.2761 21.5312 9.62279 20.8464 8.40381 19.6274C7.18482 18.4085 6.5 16.7552 6.5 15.0312V10.1562C8.22391 10.1562 9.87721 9.47143 11.0962 8.25244C12.3152 7.03346 13 5.38016 13 3.65625C13 5.38016 13.6848 7.03346 14.9038 8.25244C16.1228 9.47143 17.7761 10.1562 19.5 10.1562ZM17.0625 13C17.0625 12.759 16.991 12.5233 16.8571 12.3229C16.7232 12.1225 16.5328 11.9663 16.3101 11.874C16.0874 11.7818 15.8424 11.7576 15.606 11.8047C15.3696 11.8517 15.1524 11.9678 14.982 12.1382C14.8115 12.3087 14.6954 12.5258 14.6484 12.7622C14.6014 12.9986 14.6255 13.2437 14.7178 13.4664C14.81 13.6891 14.9662 13.8794 15.1666 14.0134C15.3671 14.1473 15.6027 14.2188 15.8438 14.2188C16.167 14.2188 16.477 14.0903 16.7055 13.8618C16.9341 13.6332 17.0625 13.3232 17.0625 13ZM15.4375 16.6562H10.5625C10.5625 17.3027 10.8193 17.9227 11.2764 18.3798C11.7335 18.8369 12.3535 19.0938 13 19.0938C13.6465 19.0938 14.2665 18.8369 14.7236 18.3798C15.1807 17.9227 15.4375 17.3027 15.4375 16.6562ZM11.375 13C11.375 12.759 11.3035 12.5233 11.1696 12.3229C11.0357 12.1225 10.8453 11.9663 10.6226 11.874C10.3999 11.7818 10.1549 11.7576 9.91848 11.8047C9.68207 11.8517 9.46491 11.9678 9.29446 12.1382C9.12402 12.3087 9.00794 12.5258 8.96092 12.7622C8.91389 12.9986 8.93803 13.2437 9.03027 13.4664C9.12252 13.6891 9.27873 13.8794 9.47915 14.0134C9.67957 14.1473 9.9152 14.2188 10.1562 14.2188C10.4795 14.2188 10.7895 14.0903 11.018 13.8618C11.2466 13.6332 11.375 13.3232 11.375 13Z" fill="#D7AD7C"/>
<path id="Vector_4" d="M19.5 9.75V10.1562C17.7761 10.1562 16.1228 9.47143 14.9038 8.25244C13.6848 7.03346 13 5.38016 13 3.65625L13.0081 3.25C13.8613 3.24995 14.7062 3.4181 15.4944 3.74483C16.2826 4.07157 16.9986 4.55048 17.6016 5.15418C18.2045 5.75788 18.6825 6.47452 19.0083 7.26311C19.334 8.0517 19.5011 8.89678 19.5 9.75Z" fill="#291B60"/>
<path id="Vector_5" d="M15.8438 14.2188C16.5168 14.2188 17.0625 13.6731 17.0625 13C17.0625 12.3269 16.5168 11.7812 15.8438 11.7812C15.1707 11.7812 14.625 12.3269 14.625 13C14.625 13.6731 15.1707 14.2188 15.8438 14.2188Z" fill="black"/>
<path id="Vector_6" d="M10.5625 16.6562H15.4375C15.4375 17.3027 15.1807 17.9227 14.7236 18.3798C14.2665 18.8369 13.6465 19.0938 13 19.0938C12.3535 19.0938 11.7335 18.8369 11.2764 18.3798C10.8193 17.9227 10.5625 17.3027 10.5625 16.6562Z" fill="#EB3B5B"/>
<path id="Vector_7" d="M14.6087 23.8144C14.6204 23.865 14.6258 23.9168 14.625 23.9687C14.6234 24.1837 14.5373 24.3895 14.3853 24.5415C14.2332 24.6935 14.0275 24.7797 13.8125 24.7812H12.1875C11.9722 24.7806 11.7659 24.6948 11.6137 24.5426C11.4614 24.3903 11.3756 24.184 11.375 23.9687C11.3741 23.9168 11.3796 23.865 11.3912 23.8144C11.4197 23.6548 11.4979 23.5083 11.6147 23.3959C11.6892 23.3196 11.7783 23.259 11.8767 23.2178C11.9751 23.1766 12.0808 23.1557 12.1875 23.1562H13.8125C14.0009 23.1566 14.1834 23.2224 14.3287 23.3425C14.4739 23.4625 14.5729 23.6294 14.6087 23.8144Z" fill="#38515C"/>
<path id="Vector_8" d="M13.0081 3.25L13 3.65625C13 5.38016 12.3152 7.03346 11.0962 8.25244C9.87721 9.47143 8.22391 10.1562 6.5 10.1562V9.75C6.5 8.02609 7.18482 6.37279 8.40381 5.15381C9.6228 3.93482 11.2761 3.25 13 3.25H13.0081Z" fill="#291B60"/>
<path id="Vector_9" d="M10.1562 14.2188C10.8293 14.2188 11.375 13.6731 11.375 13C11.375 12.3269 10.8293 11.7812 10.1562 11.7812C9.48315 11.7812 8.9375 12.3269 8.9375 13C8.9375 13.6731 9.48315 14.2188 10.1562 14.2188Z" fill="black"/>
<path id="Vector_10" d="M6.5 15.0312V16.25H5.28125C5.01244 16.249 4.7463 16.1966 4.49719 16.0956C4.12778 15.9401 3.81245 15.6791 3.59061 15.3452C3.36878 15.0114 3.2503 14.6196 3.25 14.2188V12.1875C3.25011 11.7882 3.36763 11.3978 3.58794 11.0648C3.80825 10.7318 4.12163 10.4709 4.48906 10.3147C4.74006 10.21 5.00931 10.1562 5.28125 10.1563H6.5V15.0312Z" fill="#38515C"/>
<path id="Vector_11" d="M13.8125 25.1875H12.1875C11.8643 25.1875 11.5543 25.0591 11.3257 24.8305C11.0972 24.602 10.9688 24.292 10.9688 23.9687C10.9678 23.8833 10.9773 23.798 10.9972 23.7148C11.0438 23.4811 11.1616 23.2675 11.3344 23.1034C11.4457 22.9905 11.5786 22.901 11.7252 22.8403C11.8717 22.7796 12.0289 22.7489 12.1875 22.75H13.8125C14.0951 22.7504 14.3689 22.849 14.5868 23.0289C14.8048 23.2088 14.9534 23.4589 15.0073 23.7364C15.0246 23.8126 15.0327 23.8906 15.0313 23.9687C15.0294 24.2914 14.9005 24.6004 14.6723 24.8285C14.4441 25.0567 14.1352 25.1857 13.8125 25.1875ZM12.1875 23.5625C12.1351 23.5619 12.0831 23.572 12.0347 23.5921C11.9863 23.6122 11.9425 23.6419 11.906 23.6795C11.8465 23.7336 11.8063 23.8056 11.7914 23.8847C11.7843 23.9121 11.7809 23.9404 11.7813 23.9687C11.7813 24.0765 11.8241 24.1798 11.9002 24.256C11.9764 24.3322 12.0798 24.375 12.1875 24.375H13.8125C13.865 24.3755 13.917 24.3654 13.9654 24.3453C14.0139 24.3252 14.0578 24.2955 14.0944 24.258C14.1338 24.2208 14.1651 24.176 14.1865 24.1262C14.2079 24.0765 14.2188 24.0229 14.2188 23.9687C14.2196 23.9504 14.2182 23.932 14.2147 23.9139C14.1999 23.8173 14.1515 23.729 14.0779 23.6647C14.0042 23.6004 13.9102 23.5642 13.8125 23.5625H12.1875Z" fill="black"/>
<path id="Vector_12" d="M11.3917 24.2206C11.366 24.2207 11.3405 24.2184 11.3153 24.2137C9.39133 23.8444 7.64211 22.8529 6.33695 21.3919C5.03179 19.9309 4.24305 18.0814 4.09216 16.1281V14.8765C4.09216 14.7687 4.13496 14.6654 4.21115 14.5892C4.28734 14.513 4.39067 14.4702 4.49841 14.4702C4.60616 14.4702 4.70949 14.513 4.78567 14.5892C4.86186 14.6654 4.90466 14.7687 4.90466 14.8765V16.0952C5.04649 17.8655 5.76535 19.5404 6.95091 20.8628C8.13647 22.1851 9.72322 23.0819 11.4676 23.4154C11.5668 23.4345 11.6553 23.4898 11.7159 23.5707C11.7765 23.6515 11.8048 23.752 11.7953 23.8525C11.7859 23.9531 11.7393 24.0465 11.6646 24.1146C11.59 24.1826 11.4927 24.2204 11.3917 24.2206Z" fill="black"/>
</g>
</svg>
