<svg width="32" height="32" viewBox="0 0 32 32" fill="none" xmlns="http://www.w3.org/2000/svg">
<g id="Chat">
<path id="Vector" d="M11.62 27.13C11.4069 27.1266 11.1965 27.0825 11 27C10.7043 26.8789 10.4512 26.6726 10.2732 26.4072C10.0951 26.1419 9.99999 25.8296 10 25.51V23H8C6.93913 23 5.92172 22.5786 5.17157 21.8284C4.42143 21.0783 4 20.0609 4 19V9C4 7.93913 4.42143 6.92172 5.17157 6.17157C5.92172 5.42143 6.93913 5 8 5H24C25.0609 5 26.0783 5.42143 26.8284 6.17157C27.5786 6.92172 28 7.93913 28 9V19C28 20.0609 27.5786 21.0783 26.8284 21.8284C26.0783 22.5786 25.0609 23 24 23H16.41L12.75 26.66C12.6024 26.8096 12.4264 26.9282 12.2324 27.0089C12.0383 27.0896 11.8301 27.1307 11.62 27.13ZM8 7C7.46957 7 6.96086 7.21071 6.58579 7.58579C6.21071 7.96086 6 8.46957 6 9V19C6 19.5304 6.21071 20.0391 6.58579 20.4142C6.96086 20.7893 7.46957 21 8 21H11C11.2652 21 11.5196 21.1054 11.7071 21.2929C11.8946 21.4804 12 21.7348 12 22V24.59L15.29 21.29C15.3834 21.1973 15.4943 21.124 15.6161 21.0742C15.7379 21.0245 15.8684 20.9992 16 21H24C24.5304 21 25.0391 20.7893 25.4142 20.4142C25.7893 20.0391 26 19.5304 26 19V9C26 8.46957 25.7893 7.96086 25.4142 7.58579C25.0391 7.21071 24.5304 7 24 7H8Z" fill="white"/>
<path id="Vector_2" d="M21 13H11C10.7348 13 10.4804 12.8946 10.2929 12.7071C10.1054 12.5196 10 12.2652 10 12C10 11.7348 10.1054 11.4804 10.2929 11.2929C10.4804 11.1054 10.7348 11 11 11H21C21.2652 11 21.5196 11.1054 21.7071 11.2929C21.8946 11.4804 22 11.7348 22 12C22 12.2652 21.8946 12.5196 21.7071 12.7071C21.5196 12.8946 21.2652 13 21 13ZM16 17H11C10.7348 17 10.4804 16.8946 10.2929 16.7071C10.1054 16.5196 10 16.2652 10 16C10 15.7348 10.1054 15.4804 10.2929 15.2929C10.4804 15.1054 10.7348 15 11 15H16C16.2652 15 16.5196 15.1054 16.7071 15.2929C16.8946 15.4804 17 15.7348 17 16C17 16.2652 16.8946 16.5196 16.7071 16.7071C16.5196 16.8946 16.2652 17 16 17Z" fill="#FB6039"/>
</g>
</svg>
