<svg width="14" height="16" viewBox="0 0 14 16" fill="none" xmlns="http://www.w3.org/2000/svg">
<path d="M11 13.6557V4.33333C11 3.96514 11.2985 3.66667 11.6667 3.66667C12.0348 3.66667 12.3333 3.96514 12.3333 4.33333V14.6395C12.3333 15.1109 11.8574 15.4334 11.4196 15.2587L9.04012 14.3093L7.62619 15.0615C7.2347 15.2697 6.76528 15.2697 6.37378 15.0615L4.95986 14.3093L2.58037 15.2587C2.14254 15.4334 1.66666 15.1109 1.66666 14.6395V4C1.66666 3.63181 1.96513 3.33333 2.33332 3.33333C2.70151 3.33333 2.99999 3.63181 2.99999 4V13.6557L4.46576 13.0709C4.83003 12.9256 5.23981 12.948 5.58606 13.1322L6.99999 13.8843L8.41392 13.1322C8.76016 12.948 9.16995 12.9256 9.53422 13.0709L11 13.6557Z" fill="white"/>
<path d="M2.33333 2C1.96514 2 1.66666 2.29848 1.66666 2.66667V2.66667C1.66666 3.03486 1.96514 3.33333 2.33333 3.33333H11.6667C12.0349 3.33333 12.3333 3.03486 12.3333 2.66667V2.66667C12.3333 2.29848 12.0349 2 11.6667 2H2.33333ZM1.66666 0.666667H12.3333C13.0697 0.666667 13.6667 1.26362 13.6667 2V3.33333C13.6667 4.06971 13.0697 4.66667 12.3333 4.66667H1.66666C0.930282 4.66667 0.333328 4.06971 0.333328 3.33333V2C0.333328 1.26362 0.930282 0.666667 1.66666 0.666667Z" fill="white"/>
<path d="M4.99999 8C4.63181 8 4.33333 7.70152 4.33333 7.33333C4.33333 6.96514 4.63181 6.66667 4.99999 6.66667H8.99926C9.36745 6.66667 9.66593 6.96514 9.66593 7.33333C9.66593 7.70152 9.36745 8 8.99926 8H4.99999Z" fill="#2969FF"/>
<path d="M4.99999 10.6667C4.63181 10.6667 4.33333 10.3682 4.33333 10C4.33333 9.63181 4.63181 9.33333 4.99999 9.33333H8.99926C9.36745 9.33333 9.66593 9.63181 9.66593 10C9.66593 10.3682 9.36745 10.6667 8.99926 10.6667H4.99999Z" fill="#2969FF"/>
</svg>
