<svg width="250" height="202" viewBox="0 0 250 202" fill="none" xmlns="http://www.w3.org/2000/svg">
<g id="Online Contacts">
<path id="Vector" d="M180.113 61.0346C184.298 45.1321 193.87 34.0944 205.954 29.0726C218.038 24.0508 232.633 24.9923 246.861 33.1528C238.439 64.9579 208.57 77.4079 180.113 61.0346Z" fill="#199180"/>
<path id="Vector_2" d="M183.617 59.3606L241.735 35.2452C241.787 35.2452 241.84 35.2452 241.84 35.2976C241.84 35.3499 241.84 35.4022 241.787 35.4022L183.774 59.7267C183.751 59.7382 183.725 59.7446 183.698 59.7455C183.672 59.7464 183.645 59.7418 183.621 59.7319C183.596 59.7221 183.574 59.7073 183.555 59.6884C183.537 59.6694 183.522 59.6469 183.513 59.6221C183.461 59.5175 183.513 59.3606 183.617 59.3606Z" fill="white"/>
<path id="Vector_3" d="M217.201 45.5505C218.897 45.6004 220.574 45.9182 222.171 46.4921C222.97 46.7652 223.741 47.1156 224.472 47.5384C225.202 47.9786 225.901 48.468 226.565 49.0031C226.669 49.0554 226.669 49.2123 226.617 49.3169C226.565 49.4215 226.408 49.4215 226.303 49.3692C225.7 48.7904 225.033 48.2815 224.315 47.8522C223.603 47.4133 222.85 47.0453 222.066 46.7537C220.495 46.1296 218.836 45.7588 217.149 45.6552C217.179 45.628 217.197 45.5907 217.201 45.5505ZM199.52 52.9264C200.613 51.6532 201.512 50.2253 202.188 48.6892C202.496 47.9209 202.758 47.1348 202.972 46.3352C203.157 45.5279 203.262 44.7044 203.286 43.8766C203.286 43.8489 203.291 43.8215 203.302 43.7959C203.312 43.7702 203.327 43.7469 203.347 43.7273C203.366 43.7076 203.39 43.692 203.415 43.6814C203.441 43.6708 203.468 43.6653 203.496 43.6653C203.523 43.6653 203.551 43.6708 203.576 43.6814C203.602 43.692 203.625 43.7076 203.644 43.7273C203.664 43.7469 203.679 43.7702 203.689 43.7959C203.7 43.8215 203.705 43.8489 203.705 43.8766C203.672 44.7279 203.531 45.5716 203.286 46.3875C203.068 47.2164 202.77 48.0222 202.397 48.7938C201.683 50.3265 200.709 51.7245 199.52 52.9264ZM193.4 55.4373C195.095 55.4871 196.773 55.8049 198.369 56.3789C199.169 56.6519 199.939 57.0023 200.671 57.4251C201.401 57.8654 202.1 58.3547 202.763 58.8898C202.868 58.9421 202.868 59.0991 202.816 59.2037C202.763 59.3083 202.606 59.3083 202.502 59.256C201.898 58.6771 201.231 58.1682 200.514 57.739C199.802 57.3 199.048 56.9321 198.265 56.6404C196.694 56.0163 195.034 55.6455 193.347 55.5419C193.4 55.5419 193.4 55.4896 193.4 55.4373ZM226.146 41.7841C227.239 40.5109 228.138 39.0831 228.814 37.547C229.123 36.7787 229.385 35.9926 229.599 35.193C229.784 34.3857 229.889 33.5622 229.913 32.7344C229.912 32.7067 229.918 32.6793 229.928 32.6537C229.938 32.6281 229.954 32.6048 229.973 32.5852C229.993 32.5655 230.016 32.5499 230.041 32.5393C230.067 32.5287 230.094 32.5232 230.122 32.5232C230.15 32.5232 230.177 32.5287 230.202 32.5393C230.228 32.5499 230.251 32.5655 230.271 32.5852C230.29 32.6048 230.305 32.6281 230.316 32.6537C230.326 32.6793 230.331 32.7067 230.331 32.7344C230.298 33.5856 230.158 34.4293 229.913 35.2453C229.694 36.0742 229.397 36.88 229.023 37.6516C228.322 39.1917 227.347 40.5918 226.146 41.7841V41.7841Z" fill="white"/>
<path id="Vector_4" d="M180.113 61.0346C174.829 45.4983 176.765 31.0081 184.036 20.1275C191.307 9.24681 204.019 2.02791 220.392 0.981689C230.907 32.1067 212.859 58.9945 180.113 61.0346Z" fill="#2AB19F"/>
<path id="Vector_5" d="M182.101 57.6866L217.253 5.53264C217.306 5.48033 217.358 5.48033 217.358 5.53264C217.41 5.58495 217.41 5.63726 217.358 5.63726L182.467 57.8958C182.414 58.0005 182.257 58.0005 182.153 57.9482C182.048 57.8959 182.048 57.7912 182.101 57.6866Z" fill="white"/>
<path id="Vector_6" d="M202.502 27.6078C203.935 26.7071 205.508 26.0529 207.157 25.6723C208.809 25.2193 210.537 25.1124 212.232 25.3585C212.287 25.3585 212.34 25.3805 212.379 25.4198C212.419 25.459 212.441 25.5122 212.441 25.5677C212.441 25.6232 212.419 25.6764 212.379 25.7157C212.34 25.7549 212.287 25.777 212.232 25.777C211.419 25.6483 210.596 25.5957 209.773 25.62C208.926 25.6212 208.083 25.7267 207.262 25.9339C205.602 26.2548 203.998 26.8189 202.502 27.6079V27.6078ZM191.83 43.5104C192.04 41.8384 191.987 40.1441 191.673 38.4885C191.364 36.8428 190.761 35.2659 189.895 33.8328C189.881 33.8122 189.872 33.7891 189.867 33.7648C189.862 33.7405 189.862 33.7155 189.867 33.6912C189.872 33.6669 189.881 33.6438 189.895 33.6233C189.909 33.6027 189.926 33.585 189.947 33.5713C189.968 33.5575 189.991 33.548 190.015 33.5432C190.039 33.5384 190.064 33.5384 190.089 33.5433C190.113 33.5481 190.136 33.5577 190.157 33.5715C190.177 33.5853 190.195 33.603 190.209 33.6236C190.641 34.3682 190.992 35.1575 191.255 35.9776C191.532 36.7927 191.725 37.634 191.83 38.4885C192.101 40.1706 192.083 41.8865 191.778 43.5627C191.883 43.5627 191.883 43.5627 191.83 43.5104ZM188.116 49.0553C189.549 48.1546 191.123 47.5004 192.772 47.1198C194.424 46.6667 196.151 46.5599 197.846 46.806C197.874 46.8057 197.901 46.8109 197.927 46.8213C197.952 46.8317 197.976 46.847 197.995 46.8665C198.015 46.886 198.031 46.9091 198.041 46.9346C198.052 46.9602 198.057 46.9875 198.057 47.0152C198.057 47.0428 198.052 47.0702 198.041 47.0957C198.031 47.1213 198.015 47.1444 197.995 47.1639C197.976 47.1833 197.952 47.1987 197.927 47.2091C197.901 47.2195 197.874 47.2247 197.846 47.2244C197.033 47.0957 196.21 47.0432 195.387 47.0675C194.541 47.0687 193.697 47.1741 192.876 47.3814C191.21 47.6783 189.602 48.2437 188.116 49.0553C188.169 49.1076 188.116 49.1076 188.116 49.0553ZM207.89 19.6043C208.099 17.9324 208.046 16.238 207.733 14.5824C207.423 12.9367 206.821 11.3598 205.954 9.92677C205.935 9.88315 205.929 9.83452 205.939 9.78764C205.948 9.74077 205.972 9.69798 206.007 9.66522C206.059 9.61291 206.216 9.66522 206.268 9.71753C206.701 10.4621 207.052 11.2514 207.314 12.0715C207.592 12.8866 207.784 13.728 207.89 14.5825C208.16 16.2646 208.142 17.9804 207.837 19.6566C207.942 19.6043 207.942 19.6043 207.89 19.6043L207.89 19.6043Z" fill="white"/>
<path id="Vector_7" d="M180.165 61.0345C193.19 50.9908 207.524 48.1137 220.131 51.5139C232.79 54.9141 243.723 64.5393 250 79.7095C224.002 99.7446 192.72 91.3748 180.165 61.0345Z" fill="#48DBC5"/>
<path id="Vector_8" d="M184.036 61.8192L244.769 78.1925C244.821 78.1925 244.821 78.2448 244.821 78.2971C244.821 78.3494 244.769 78.3495 244.717 78.3495L183.931 62.1854C183.883 62.1609 183.843 62.1234 183.815 62.0771C183.788 62.0309 183.773 61.9778 183.774 61.9238C183.774 61.8715 183.931 61.8192 184.036 61.8192Z" fill="white"/>
<path id="Vector_9" d="M219.032 71.3921C220.348 72.4542 221.479 73.7269 222.38 75.1585C222.852 75.8681 223.255 76.6213 223.583 77.4078C223.929 78.1934 224.175 79.0194 224.315 79.8665C224.322 79.8939 224.324 79.9225 224.319 79.9505C224.315 79.9785 224.306 80.0054 224.291 80.0297C224.276 80.054 224.257 80.0752 224.235 80.0921C224.212 80.1089 224.186 80.1211 224.158 80.128C224.131 80.1349 224.102 80.1363 224.074 80.1321C224.046 80.1279 224.019 80.1183 223.995 80.1037C223.971 80.0891 223.95 80.0699 223.933 80.0472C223.916 80.0244 223.904 79.9986 223.897 79.9711C223.768 79.1501 223.558 78.344 223.269 77.5648C222.956 76.7902 222.589 76.0386 222.171 75.3154C221.352 73.8408 220.291 72.5145 219.032 71.3921C218.98 71.4444 218.98 71.3921 219.032 71.3921ZM200.566 66.4226C202.215 66.0919 203.803 65.5096 205.274 64.6963C206.003 64.2741 206.702 63.8022 207.367 63.2839C208.011 62.7445 208.606 62.1494 209.145 61.5053C209.198 61.4007 209.354 61.4007 209.459 61.5053C209.564 61.5577 209.564 61.7146 209.459 61.8192C208.896 62.4616 208.265 63.0405 207.576 63.5455C206.906 64.0656 206.187 64.521 205.431 64.9056C203.915 65.6783 202.293 66.2247 200.619 66.5272C200.566 66.5272 200.514 66.4749 200.566 66.4226ZM194.132 64.7486C195.448 65.8108 196.579 67.0834 197.48 68.515C197.952 69.2246 198.355 69.9778 198.683 70.7644C199.029 71.5499 199.276 72.3759 199.415 73.223C199.422 73.2505 199.424 73.2791 199.42 73.3071C199.415 73.3352 199.406 73.3621 199.391 73.3865C199.377 73.4108 199.358 73.432 199.335 73.4489C199.312 73.4658 199.286 73.478 199.259 73.4849C199.231 73.4918 199.202 73.4932 199.174 73.489C199.146 73.4848 199.119 73.4751 199.095 73.4605C199.071 73.4459 199.05 73.4266 199.033 73.4038C199.016 73.381 199.004 73.3551 198.997 73.3276C198.868 72.5066 198.658 71.7006 198.369 70.9213C198.056 70.1468 197.689 69.3951 197.271 68.6719C196.435 67.2088 195.376 65.8851 194.132 64.7486C194.132 64.6963 194.08 64.6963 194.132 64.7486ZM228.396 73.903C230.044 73.5723 231.632 72.9901 233.104 72.1768C233.833 71.7546 234.532 71.2827 235.196 70.7644C235.84 70.225 236.435 69.6298 236.975 68.9858C237.027 68.8812 237.184 68.8812 237.288 68.9858C237.393 69.0381 237.393 69.195 237.288 69.2997C236.726 69.9421 236.094 70.5209 235.405 71.0259C234.735 71.5461 234.017 72.0015 233.26 72.386C231.744 73.1588 230.123 73.7051 228.448 74.0076C228.396 73.9553 228.396 73.9553 228.396 73.903V73.903Z" fill="white"/>
<path id="Vector_10" fill-rule="evenodd" clip-rule="evenodd" d="M188.639 73.2753V189.876C188.63 193.064 187.359 196.119 185.105 198.374C182.851 200.628 179.796 201.898 176.608 201.908H86.1624C82.9743 201.898 79.9194 200.628 77.6651 198.374C75.4108 196.119 74.1402 193.064 74.1309 189.876V12.0715C74.1402 8.88346 75.4108 5.82861 77.6651 3.57429C79.9194 1.31996 82.9743 0.0493663 86.1624 0.0400391H176.608C179.793 0.0582451 182.843 1.33169 185.095 3.5841C187.348 5.83651 188.621 8.88621 188.639 12.0715V73.2753" fill="#5B6F8B"/>
<path id="Vector_11" fill-rule="evenodd" clip-rule="evenodd" d="M184.088 12.0716V189.876C184.071 191.855 183.277 193.748 181.878 195.147C180.479 196.546 178.586 197.339 176.608 197.357H86.1623C84.1838 197.339 82.2911 196.546 80.892 195.147C79.4929 193.748 78.6992 191.855 78.6819 189.876V12.0716C78.6903 10.0903 79.4812 8.19248 80.8822 6.79145C82.2832 5.39042 84.181 4.59959 86.1623 4.59113H104.942C105.636 4.58663 106.313 4.80184 106.877 5.20592C107.441 5.60999 107.862 6.18219 108.081 6.8405V8.09597C108.079 8.52926 108.163 8.95862 108.328 9.35927C108.493 9.75993 108.735 10.124 109.042 10.4303C109.348 10.7367 109.712 10.9794 110.113 11.1444C110.514 11.3094 110.943 11.3934 111.376 11.3916H151.394C151.827 11.3934 152.257 11.3094 152.657 11.1444C153.058 10.9794 153.422 10.7367 153.728 10.4303C154.035 10.124 154.277 9.75993 154.442 9.35927C154.607 8.95861 154.691 8.52926 154.69 8.09597V6.8405C154.908 6.18219 155.33 5.60999 155.894 5.20592C156.457 4.80184 157.135 4.58663 157.828 4.59113H176.608C178.589 4.59959 180.487 5.39042 181.888 6.79145C183.289 8.19248 184.08 10.0903 184.088 12.0716Z" fill="white"/>
<path id="Vector_12" fill-rule="evenodd" clip-rule="evenodd" d="M140.461 6.94506C140.794 6.94506 141.113 6.81279 141.349 6.57735C141.584 6.3419 141.716 6.02257 141.716 5.6896C141.716 5.35664 141.584 5.0373 141.349 4.80186C141.113 4.56642 140.794 4.43414 140.461 4.43414H116.973C116.641 4.43461 116.322 4.56709 116.087 4.80249C115.852 5.03788 115.72 5.35694 115.72 5.6896C115.72 6.02227 115.852 6.34133 116.087 6.57672C116.322 6.81212 116.641 6.9446 116.973 6.94506H140.461ZM144.698 4.38184C144.365 4.38184 144.046 4.51411 143.81 4.74955C143.575 4.985 143.443 5.30433 143.443 5.6373C143.443 5.97027 143.575 6.2896 143.81 6.52504C144.046 6.76048 144.365 6.89276 144.698 6.89276H145.797C146.13 6.89276 146.449 6.76048 146.684 6.52504C146.92 6.2896 147.052 5.97027 147.052 5.6373C147.052 5.30433 146.92 4.985 146.684 4.74955C146.449 4.51411 146.13 4.38184 145.797 4.38184H144.698Z" fill="white"/>
<path id="Vector_13" fill-rule="evenodd" clip-rule="evenodd" d="M174.725 23.6323V183.494C174.725 184.339 174.559 185.176 174.236 185.957C173.913 186.738 173.439 187.448 172.842 188.045C172.244 188.643 171.534 189.117 170.753 189.44C169.973 189.763 169.136 189.929 168.29 189.929H68.9521C68.1069 189.929 67.27 189.763 66.4891 189.44C65.7082 189.117 64.9986 188.643 64.401 188.045C63.8034 187.448 63.3295 186.738 63.0064 185.957C62.6832 185.176 62.5172 184.339 62.5178 183.494V23.6323C62.5172 22.7871 62.6832 21.9502 63.0064 21.1692C63.3295 20.3883 63.8034 19.6788 64.401 19.0812C64.9986 18.4836 65.7082 18.0097 66.4891 17.6865C67.27 17.3634 68.1069 17.1974 68.9521 17.198H168.29C169.995 17.2056 171.627 17.886 172.832 19.091C174.037 20.296 174.717 21.9281 174.725 23.6323Z" fill="#F0F4F9"/>
<path id="Vector_14" d="M96.7291 33.676C96.206 33.2052 95.9445 32.5251 95.9445 31.6358V29.8573C95.9968 29.0203 96.2583 28.3402 96.7814 27.8694C97.3752 27.3579 98.1436 27.0955 98.9262 27.1371C99.4656 27.1298 100 27.2368 100.496 27.451C100.916 27.6253 101.279 27.9156 101.542 28.2879C101.795 28.6369 101.924 29.0604 101.908 29.4911C101.912 29.5195 101.909 29.5485 101.9 29.5757C101.891 29.603 101.876 29.6277 101.856 29.648C101.835 29.6683 101.811 29.6836 101.783 29.6927C101.756 29.7018 101.727 29.7044 101.699 29.7003H100.705C100.6 29.7003 100.548 29.7003 100.548 29.648C100.495 29.5957 100.496 29.5434 100.443 29.4388C100.392 29.0852 100.204 28.7658 99.9201 28.5495C99.6199 28.3707 99.2755 28.2801 98.9262 28.2879C97.9846 28.2879 97.4615 28.811 97.4092 29.9096V31.5835C97.4615 32.682 97.9323 33.2052 98.9262 33.2052C99.2755 33.213 99.6199 33.1224 99.9201 32.9436C100.204 32.7273 100.392 32.4079 100.443 32.0543C100.496 31.9497 100.496 31.8974 100.548 31.8451C100.568 31.8252 100.593 31.8102 100.62 31.8012C100.648 31.7921 100.676 31.7892 100.705 31.7928H101.699C101.727 31.7887 101.756 31.7913 101.783 31.8004C101.811 31.8095 101.835 31.8248 101.856 31.8451C101.876 31.8654 101.891 31.8901 101.9 31.9174C101.909 31.9446 101.912 31.9736 101.908 32.002C101.891 32.4278 101.765 32.8421 101.542 33.2052C101.292 33.589 100.925 33.8824 100.496 34.0421C100.004 34.2668 99.4665 34.3742 98.9262 34.356C98.533 34.3968 98.1357 34.3576 97.7581 34.2407C97.3805 34.1238 97.0305 33.9317 96.7291 33.676ZM103.634 33.7283C103.111 33.2575 102.849 32.5774 102.849 31.6881V29.9619C102.902 29.0726 103.163 28.3926 103.686 27.9218C104.285 27.4183 105.05 27.1571 105.831 27.1894C106.597 27.1567 107.346 27.4188 107.924 27.9218C108.447 28.3926 108.708 29.0726 108.761 29.9619V31.6881C108.708 32.5774 108.447 33.3098 107.976 33.7283C107.453 34.1991 106.773 34.4083 105.831 34.4083C105.043 34.4404 104.267 34.2003 103.634 33.7283ZM106.825 32.839C106.974 32.6676 107.088 32.4685 107.16 32.253C107.232 32.0376 107.26 31.81 107.244 31.5835V29.9096C107.267 29.4533 107.118 29.0049 106.825 28.6541C106.543 28.3855 106.168 28.2356 105.779 28.2356C105.389 28.2356 105.015 28.3855 104.733 28.6541C104.584 28.8255 104.47 29.0246 104.398 29.2401C104.326 29.4555 104.298 29.6831 104.314 29.9096V31.5835C104.29 32.0398 104.44 32.4882 104.733 32.839C104.871 32.9745 105.034 33.0813 105.214 33.1532C105.393 33.225 105.585 33.2605 105.779 33.2575C105.973 33.2656 106.167 33.2324 106.347 33.1603C106.527 33.0882 106.69 32.9787 106.825 32.839ZM110.121 34.2514C110.101 34.2308 110.086 34.206 110.077 34.1788C110.068 34.1517 110.065 34.1228 110.068 34.0944V27.5033C110.068 27.451 110.068 27.3463 110.121 27.3463C110.141 27.3265 110.166 27.3115 110.193 27.3024C110.22 27.2934 110.249 27.2905 110.278 27.294H111.062C111.122 27.298 111.181 27.3139 111.235 27.3408C111.289 27.3678 111.337 27.4052 111.376 27.451L114.253 31.8974V27.5033C114.253 27.451 114.253 27.3463 114.306 27.3463C114.358 27.3463 114.41 27.294 114.463 27.294H115.352C115.404 27.294 115.509 27.294 115.509 27.3463C115.509 27.3986 115.561 27.451 115.561 27.5033V34.0421C115.561 34.0944 115.561 34.1991 115.509 34.1991C115.488 34.2189 115.463 34.2339 115.436 34.243C115.409 34.252 115.38 34.2549 115.352 34.2514H114.567C114.506 34.253 114.445 34.2395 114.391 34.2121C114.336 34.1848 114.289 34.1444 114.253 34.0944L111.376 29.7526V34.0421C111.38 34.0706 111.378 34.0995 111.369 34.1268C111.359 34.154 111.344 34.1788 111.324 34.1991C111.304 34.2194 111.279 34.2347 111.252 34.2438C111.224 34.2528 111.195 34.2555 111.167 34.2514H110.278C110.225 34.3037 110.173 34.2514 110.121 34.2514ZM118.804 34.2514C118.784 34.2308 118.769 34.206 118.76 34.1788C118.751 34.1517 118.748 34.1228 118.752 34.0944V28.4972H116.869C116.84 28.5013 116.811 28.4986 116.784 28.4896C116.757 28.4805 116.732 28.4652 116.712 28.4449C116.692 28.4246 116.676 28.3998 116.667 28.3726C116.658 28.3453 116.655 28.3164 116.66 28.2879V27.5556C116.66 27.5033 116.66 27.3986 116.712 27.3986C116.732 27.3788 116.757 27.3638 116.784 27.3547C116.812 27.3457 116.84 27.3428 116.869 27.3463H121.995C122.048 27.3463 122.152 27.3463 122.152 27.3986C122.152 27.4509 122.204 27.5033 122.204 27.5556V28.2879C122.204 28.3402 122.205 28.4449 122.152 28.4449C122.1 28.4449 122.048 28.4972 121.995 28.4972H120.164V34.0421C120.168 34.0706 120.166 34.0995 120.157 34.1268C120.148 34.154 120.132 34.1788 120.112 34.1991C120.092 34.2194 120.067 34.2347 120.04 34.2437C120.013 34.2528 119.984 34.2554 119.955 34.2514H119.014C118.909 34.3037 118.857 34.2514 118.804 34.2514ZM121.943 34.2514C121.923 34.2308 121.908 34.206 121.899 34.1788C121.89 34.1517 121.887 34.1228 121.891 34.0944V33.9898L124.297 27.5033C124.324 27.4275 124.373 27.3617 124.439 27.315C124.504 27.2682 124.583 27.2426 124.663 27.2417H125.762C125.842 27.2426 125.92 27.2682 125.986 27.315C126.051 27.3617 126.101 27.4275 126.128 27.5033L128.534 33.9898V34.0944C128.538 34.1229 128.536 34.1519 128.527 34.1791C128.517 34.2063 128.502 34.2311 128.482 34.2514C128.462 34.2717 128.437 34.287 128.41 34.2961C128.382 34.3051 128.353 34.3078 128.325 34.3037H127.436C127.367 34.3127 127.297 34.2964 127.239 34.2579C127.182 34.2194 127.14 34.1614 127.122 34.0944L126.651 32.8913H123.669L123.198 34.0944C123.171 34.1554 123.127 34.2074 123.072 34.2445C123.016 34.2815 122.951 34.302 122.885 34.3037H121.995C122.048 34.3037 121.995 34.3037 121.943 34.2514ZM124.088 31.7405H126.337L125.186 28.6541L124.088 31.7405ZM129.947 33.676C129.423 33.2052 129.162 32.5251 129.162 31.6358V29.8573C129.214 29.0203 129.476 28.3402 129.999 27.8694C130.593 27.3579 131.361 27.0955 132.144 27.1371C132.683 27.1298 133.218 27.2368 133.713 27.451C134.134 27.6253 134.497 27.9156 134.759 28.2879C135.012 28.6369 135.141 29.0604 135.125 29.4911C135.129 29.5195 135.127 29.5485 135.118 29.5757C135.109 29.603 135.093 29.6277 135.073 29.648C135.053 29.6683 135.028 29.6836 135.001 29.6927C134.973 29.7018 134.944 29.7044 134.916 29.7003H133.922C133.818 29.7003 133.765 29.7003 133.765 29.648C133.713 29.5957 133.713 29.5434 133.661 29.4388C133.61 29.0852 133.422 28.7658 133.138 28.5495C132.837 28.3707 132.493 28.2801 132.144 28.2879C131.202 28.2879 130.679 28.811 130.627 29.9096V31.5835C130.679 32.682 131.15 33.2052 132.144 33.2052C132.493 33.213 132.837 33.1224 133.138 32.9436C133.422 32.7273 133.61 32.4079 133.661 32.0543C133.713 31.9497 133.713 31.8974 133.765 31.8451C133.786 31.8252 133.811 31.8102 133.838 31.8012C133.865 31.7921 133.894 31.7892 133.922 31.7928H134.916C134.944 31.7887 134.973 31.7913 135.001 31.8004C135.028 31.8095 135.053 31.8248 135.073 31.8451C135.093 31.8654 135.109 31.8901 135.118 31.9174C135.127 31.9446 135.129 31.9736 135.125 32.002C135.108 32.4278 134.982 32.8421 134.759 33.2052C134.497 33.5775 134.134 33.8678 133.713 34.0421C133.221 34.2668 132.684 34.3742 132.144 34.356C131.15 34.4083 130.417 34.1468 129.947 33.676ZM137.845 34.2514C137.826 34.2308 137.811 34.206 137.802 34.1788C137.793 34.1517 137.79 34.1228 137.793 34.0944V28.4972H135.91C135.882 28.5013 135.853 28.4986 135.825 28.4896C135.798 28.4805 135.773 28.4652 135.753 28.4449C135.733 28.4246 135.717 28.3998 135.708 28.3726C135.699 28.3453 135.697 28.3164 135.701 28.2879V27.5556C135.701 27.5033 135.701 27.3986 135.753 27.3986C135.774 27.3788 135.798 27.3638 135.826 27.3547C135.853 27.3457 135.882 27.3428 135.91 27.3463H141.036C141.089 27.3463 141.193 27.3463 141.193 27.3986C141.193 27.4509 141.246 27.5033 141.246 27.5556V28.2879C141.246 28.3402 141.246 28.4449 141.193 28.4449C141.141 28.4449 141.089 28.4972 141.036 28.4972H139.206V34.0421C139.21 34.0706 139.207 34.0995 139.198 34.1268C139.189 34.154 139.174 34.1788 139.153 34.1991C139.133 34.2194 139.108 34.2347 139.081 34.2437C139.054 34.2528 139.025 34.2554 138.996 34.2514H138.055C137.95 34.3037 137.898 34.2514 137.845 34.2514Z" fill="#FB6039"/>
<path id="Vector_15" d="M91.6027 57.3728C91.6016 59.3945 91.0206 61.3733 89.9287 63.0747C88.549 65.2346 86.4362 66.8242 83.9785 67.5513C81.5208 68.2785 78.8833 68.0944 76.5504 67.0329C74.2175 65.9715 72.346 64.1039 71.2796 61.7733C70.2133 59.4427 70.0236 56.8055 70.7456 54.3463C71.4676 51.8871 73.0527 49.771 75.2097 48.3867C77.3667 47.0024 79.9507 46.4429 82.4872 46.8109C85.0236 47.179 87.3421 48.4499 89.0166 50.3902C90.6912 52.3305 91.6094 54.8098 91.6027 57.3728Z" fill="#FDD333"/>
<path id="Vector_16" d="M83.3898 53.7634C83.3897 54.4293 83.1251 55.0678 82.6542 55.5387C82.1834 56.0095 81.5448 56.2741 80.8789 56.2743C80.2221 56.2604 79.5969 55.9898 79.1373 55.5204C78.6777 55.0511 78.4203 54.4203 78.4203 53.7634C78.4203 53.1064 78.6777 52.4757 79.1373 52.0063C79.5969 51.5369 80.2221 51.2663 80.8789 51.2524C81.5421 51.2614 82.1756 51.5288 82.6445 51.9978C83.1135 52.4667 83.3809 53.1002 83.3898 53.7634ZM86.3716 63.4932H75.4386C75.3443 63.4948 75.2507 63.4766 75.164 63.4396C75.0772 63.4027 74.9992 63.3479 74.9351 63.2788C74.8709 63.2097 74.822 63.1279 74.7916 63.0386C74.7612 62.9494 74.7499 62.8547 74.7585 62.7608C74.9697 61.276 75.7111 59.9178 76.8457 58.9371C77.9803 57.9563 79.4315 57.4193 80.9312 57.4251C82.4273 57.4124 83.8763 57.9483 85.004 58.9315C86.1318 59.9146 86.8602 61.277 87.0516 62.7608C87.0602 62.8547 87.0489 62.9494 87.0185 63.0386C86.9881 63.1279 86.9392 63.2097 86.8751 63.2788C86.8109 63.3479 86.7329 63.4027 86.6462 63.4396C86.5594 63.4766 86.4658 63.4948 86.3716 63.4932Z" fill="white"/>
<path id="Vector_17" d="M149.145 57.3727C149.14 57.5793 149.055 57.7759 148.909 57.922C148.763 58.0681 148.567 58.1524 148.36 58.1574H130.208C130.105 58.1576 130.003 58.1374 129.907 58.0981C129.812 58.0587 129.725 58.001 129.652 57.9281C129.579 57.8552 129.521 57.7686 129.482 57.6733C129.442 57.578 129.422 57.4759 129.422 57.3727C129.422 57.2696 129.442 57.1674 129.482 57.0721C129.521 56.9768 129.579 56.8903 129.652 56.8174C129.725 56.7445 129.812 56.6867 129.907 56.6474C130.003 56.608 130.105 56.5879 130.208 56.5881H148.36C148.567 56.5931 148.763 56.6774 148.909 56.8235C149.055 56.9695 149.14 57.1662 149.145 57.3727ZM149.145 63.3885C149.14 63.595 149.055 63.7917 148.909 63.9377C148.763 64.0838 148.567 64.1681 148.36 64.1731H96.7291C96.521 64.1731 96.3214 64.0905 96.1743 63.9433C96.0271 63.7962 95.9445 63.5966 95.9445 63.3885C95.9445 63.1804 96.0271 62.9808 96.1743 62.8336C96.3214 62.6865 96.521 62.6038 96.7291 62.6038H148.36C148.567 62.6089 148.763 62.6931 148.909 62.8392C149.055 62.9853 149.14 63.182 149.145 63.3885ZM138.892 51.4093C138.897 51.2028 138.981 51.0061 139.127 50.86C139.273 50.714 139.47 50.6297 139.676 50.6246H148.36C148.568 50.6246 148.768 50.7073 148.915 50.8545C149.062 51.0016 149.145 51.2012 149.145 51.4093C149.145 51.6174 149.062 51.817 148.915 51.9641C148.768 52.1113 148.568 52.194 148.36 52.194H139.676C139.47 52.1889 139.273 52.1046 139.127 51.9586C138.981 51.8125 138.897 51.6158 138.892 51.4093ZM95.9445 51.4093C95.9495 51.2028 96.0338 51.0061 96.1799 50.86C96.3259 50.714 96.5226 50.6297 96.7291 50.6246H134.55C134.653 50.6245 134.755 50.6446 134.851 50.684C134.946 50.7233 135.033 50.7811 135.106 50.854C135.179 50.9268 135.237 51.0134 135.276 51.1087C135.316 51.204 135.336 51.3061 135.336 51.4093C135.336 51.5125 135.316 51.6146 135.276 51.7099C135.237 51.8052 135.179 51.8918 135.106 51.9646C135.033 52.0375 134.946 52.0953 134.851 52.1346C134.755 52.174 134.653 52.1941 134.55 52.194H96.7291C96.6256 52.1959 96.5226 52.1769 96.4266 52.1382C96.3305 52.0994 96.2432 52.0417 96.17 51.9685C96.0967 51.8952 96.039 51.8079 96.0002 51.7119C95.9615 51.6158 95.9425 51.5129 95.9445 51.4093ZM95.9445 57.3727C95.9495 57.1662 96.0338 56.9695 96.1799 56.8235C96.3259 56.6774 96.5226 56.5931 96.7291 56.5881H124.14C124.348 56.5884 124.547 56.6713 124.694 56.8184C124.841 56.9655 124.923 57.1649 124.923 57.3727C124.923 57.5806 124.841 57.78 124.694 57.9271C124.547 58.0742 124.348 58.157 124.14 58.1574H96.7291C96.6244 58.1637 96.5196 58.1478 96.4215 58.1106C96.3235 58.0734 96.2344 58.0158 96.1602 57.9416C96.0861 57.8675 96.0285 57.7784 95.9913 57.6803C95.9541 57.5823 95.9381 57.4774 95.9445 57.3727Z" fill="#DDE3EA"/>
<path id="Vector_18" d="M168.238 62.1331C168.081 62.4992 167.977 62.9177 167.82 63.2839C167.72 63.6062 167.598 63.9209 167.453 64.2255C167.401 64.4347 167.192 64.487 166.983 64.4347C164.217 63.3311 161.807 61.4886 160.018 59.1084C158.228 56.7283 157.127 53.9021 156.834 50.9385C156.834 50.7293 156.939 50.5723 157.148 50.5723C157.462 50.5723 157.776 50.52 158.142 50.52C158.561 50.4677 158.927 50.4677 159.345 50.4154C159.555 50.4154 159.711 50.52 159.711 50.7293C159.825 51.7847 160.071 52.8217 160.444 53.8156C160.478 53.9058 160.475 54.0058 160.436 54.0939C160.397 54.182 160.324 54.2511 160.235 54.2864C159.973 54.391 159.711 54.4957 159.45 54.6003C159.241 54.6526 159.188 54.8618 159.241 55.0711C160.224 57.4001 161.77 59.449 163.739 61.0345C163.818 61.09 163.915 61.1152 164.011 61.1056C164.107 61.096 164.196 61.0522 164.262 60.9822C164.419 60.773 164.629 60.5114 164.786 60.3022C164.809 60.2624 164.841 60.2286 164.88 60.2034C164.918 60.1783 164.962 60.1626 165.008 60.1575C165.054 60.1524 165.1 60.1581 165.143 60.1742C165.186 60.1902 165.225 60.2161 165.256 60.2498C166.103 60.8866 167.036 61.3975 168.029 61.7669C168.186 61.7669 168.29 61.9238 168.238 62.1331Z" fill="#291B60"/>
<path id="Vector_19" d="M91.6027 92.0026C91.6016 94.0242 91.0206 96.0031 89.9287 97.7045C88.549 99.8644 86.4362 101.454 83.9785 102.181C81.5208 102.908 78.8833 102.724 76.5504 101.663C74.2176 100.601 72.346 98.7337 71.2796 96.4031C70.2133 94.0724 70.0236 91.4353 70.7456 88.9761C71.4676 86.5169 73.0526 84.4007 75.2096 83.0164C77.3666 81.6321 79.9507 81.0726 82.4872 81.4407C85.0236 81.8087 87.342 83.0796 89.0166 85.0199C90.6912 86.9602 91.6094 89.4396 91.6027 92.0026Z" fill="#48DBC5"/>
<path id="Vector_20" d="M83.3898 88.3931C83.3897 89.059 83.1251 89.6976 82.6542 90.1685C82.1834 90.6393 81.5448 90.9039 80.8789 90.904C80.3823 90.904 79.8968 90.7568 79.4839 90.4809C79.071 90.205 78.7492 89.8128 78.5591 89.354C78.3691 88.8952 78.3193 88.3903 78.4162 87.9033C78.5131 87.4162 78.7523 86.9688 79.1034 86.6176C79.4546 86.2665 79.902 86.0273 80.3891 85.9304C80.8761 85.8336 81.381 85.8833 81.8398 86.0733C82.2986 86.2634 82.6908 86.5852 82.9667 86.9981C83.2426 87.4111 83.3898 87.8965 83.3898 88.3931ZM86.3716 98.0706H75.4386C75.3443 98.0723 75.2507 98.054 75.164 98.0171C75.0772 97.9802 74.9992 97.9254 74.9351 97.8563C74.8709 97.7872 74.822 97.7053 74.7916 97.6161C74.7612 97.5268 74.7499 97.4322 74.7585 97.3383C74.9697 95.8535 75.7111 94.4953 76.8457 93.5145C77.9803 92.5338 79.4315 91.9967 80.9312 92.0026C82.4273 91.9899 83.8763 92.5257 85.004 93.5089C86.1318 94.4921 86.8602 95.8544 87.0516 97.3383C87.0602 97.4322 87.0489 97.5268 87.0185 97.6161C86.9881 97.7053 86.9392 97.7872 86.8751 97.8563C86.8109 97.9254 86.7329 97.9802 86.6462 98.0171C86.5594 98.054 86.4658 98.0723 86.3716 98.0706Z" fill="white"/>
<path id="Vector_21" d="M149.145 92.0026C149.14 92.2091 149.055 92.4058 148.909 92.5518C148.763 92.6979 148.567 92.7822 148.36 92.7872H130.208C130.105 92.7874 130.003 92.7673 129.907 92.7279C129.812 92.6886 129.725 92.6308 129.652 92.5579C129.579 92.485 129.521 92.3985 129.482 92.3032C129.442 92.2079 129.422 92.1057 129.422 92.0026C129.422 91.8994 129.442 91.7973 129.482 91.702C129.521 91.6067 129.579 91.5201 129.652 91.4472C129.725 91.3743 129.812 91.3166 129.907 91.2772C130.003 91.2379 130.105 91.2177 130.208 91.2179H148.36C148.464 91.216 148.566 91.2349 148.663 91.2737C148.759 91.3124 148.846 91.3702 148.919 91.4434C148.992 91.5167 149.05 91.6039 149.089 91.7C149.128 91.7961 149.147 91.899 149.145 92.0026ZM149.145 97.966C149.14 98.1725 149.055 98.3692 148.909 98.5153C148.763 98.6613 148.567 98.7456 148.36 98.7507H96.7291C96.521 98.7507 96.3215 98.668 96.1743 98.5209C96.0271 98.3737 95.9445 98.1741 95.9445 97.966C95.9445 97.7579 96.0271 97.5583 96.1743 97.4112C96.3215 97.264 96.521 97.1814 96.7291 97.1814H148.36C148.567 97.1864 148.763 97.2707 148.909 97.4167C149.055 97.5628 149.14 97.7595 149.145 97.966ZM138.892 85.9868C138.897 85.7803 138.981 85.5836 139.127 85.4375C139.273 85.2915 139.47 85.2072 139.676 85.2021H148.36C148.463 85.202 148.565 85.2221 148.661 85.2615C148.756 85.3008 148.843 85.3586 148.916 85.4315C148.989 85.5044 149.047 85.5909 149.086 85.6862C149.126 85.7815 149.146 85.8836 149.146 85.9868C149.146 86.09 149.126 86.1921 149.086 86.2874C149.047 86.3827 148.989 86.4693 148.916 86.5422C148.843 86.615 148.756 86.6728 148.661 86.7122C148.565 86.7515 148.463 86.7717 148.36 86.7715H139.676C139.47 86.7664 139.273 86.6822 139.127 86.5361C138.981 86.39 138.897 86.1933 138.892 85.9868ZM95.9445 85.9868C95.9495 85.7803 96.0338 85.5836 96.1799 85.4375C96.3259 85.2915 96.5226 85.2072 96.7291 85.2021H134.55C134.653 85.202 134.755 85.2221 134.851 85.2615C134.946 85.3008 135.033 85.3586 135.106 85.4315C135.179 85.5044 135.237 85.5909 135.276 85.6862C135.316 85.7815 135.336 85.8836 135.336 85.9868C135.336 86.09 135.316 86.1921 135.276 86.2874C135.237 86.3827 135.179 86.4693 135.106 86.5422C135.033 86.615 134.946 86.6728 134.851 86.7122C134.755 86.7515 134.653 86.7717 134.55 86.7715H96.7291C96.6256 86.7734 96.5227 86.7544 96.4266 86.7157C96.3305 86.677 96.2432 86.6192 96.17 86.546C96.0967 86.4727 96.039 86.3854 96.0002 86.2894C95.9615 86.1933 95.9425 86.0904 95.9445 85.9868ZM95.9445 92.0026C95.9495 91.796 96.0338 91.5994 96.1799 91.4533C96.3259 91.3072 96.5226 91.2229 96.7291 91.2179H124.14C124.348 91.2179 124.548 91.3006 124.695 91.4477C124.842 91.5949 124.925 91.7945 124.925 92.0026C124.925 92.2107 124.842 92.4103 124.695 92.5574C124.548 92.7046 124.348 92.7872 124.14 92.7872H96.7291C96.6256 92.7892 96.5226 92.7702 96.4266 92.7315C96.3305 92.6927 96.2432 92.635 96.17 92.5617C96.0967 92.4885 96.039 92.4012 96.0002 92.3051C95.9615 92.209 95.9425 92.1061 95.9445 92.0026Z" fill="#DDE3EA"/>
<path id="Vector_22" d="M168.238 96.7106C168.081 97.0767 167.977 97.4952 167.82 97.8614C167.72 98.1837 167.598 98.4984 167.453 98.803C167.401 99.0122 167.192 99.0645 166.983 99.0122C164.217 97.9086 161.807 96.0661 160.018 93.6859C158.228 91.3058 157.127 88.4796 156.834 85.516C156.834 85.3068 156.939 85.1498 157.148 85.1498C157.462 85.1498 157.776 85.0975 158.142 85.0975C158.561 85.0452 158.927 85.0452 159.345 84.9929C159.555 84.9929 159.711 85.0975 159.711 85.3068C159.825 86.3622 160.071 87.3992 160.444 88.3931C160.478 88.4834 160.475 88.5833 160.436 88.6714C160.397 88.7595 160.324 88.8287 160.235 88.8639C159.973 88.9685 159.711 89.0732 159.45 89.1778C159.241 89.2301 159.188 89.4393 159.241 89.6486C160.224 91.9776 161.77 94.0265 163.739 95.612C163.818 95.6675 163.915 95.6927 164.011 95.6831C164.107 95.6735 164.196 95.6297 164.262 95.5597C164.419 95.3505 164.629 95.0889 164.786 94.8797C164.809 94.8399 164.841 94.8061 164.88 94.781C164.918 94.7558 164.962 94.7401 165.008 94.735C165.054 94.7299 165.1 94.7356 165.143 94.7517C165.186 94.7677 165.225 94.7936 165.256 94.8274C166.103 95.4641 167.036 95.975 168.029 96.3443C168.186 96.3444 168.29 96.5536 168.238 96.7106Z" fill="#291B60"/>
<path id="Vector_23" d="M91.6027 126.58C91.6016 128.602 91.0206 130.581 89.9287 132.282C88.549 134.442 86.4362 136.031 83.9785 136.759C81.5208 137.486 78.8833 137.302 76.5504 136.24C74.2176 135.179 72.346 133.311 71.2796 130.981C70.2133 128.65 70.0236 126.013 70.7456 123.554C71.4676 121.094 73.0527 118.978 75.2097 117.594C77.3667 116.21 79.9507 115.65 82.4872 116.018C85.0236 116.386 87.342 117.657 89.0166 119.597C90.6912 121.538 91.6094 124.017 91.6027 126.58Z" fill="#FB6039"/>
<path id="Vector_24" d="M83.3898 122.971C83.3897 123.637 83.1251 124.275 82.6542 124.746C82.1834 125.217 81.5448 125.481 80.8789 125.482C80.5519 125.48 80.2285 125.414 79.9273 125.287C79.6261 125.16 79.3531 124.974 79.1244 124.74C78.8956 124.507 78.7156 124.23 78.5947 123.926C78.4738 123.622 78.4146 123.298 78.4203 122.971C78.4168 122.642 78.4786 122.316 78.6019 122.012C78.7252 121.707 78.9077 121.43 79.1388 121.197C79.3698 120.963 79.6449 120.778 79.9481 120.651C80.2513 120.525 80.5765 120.46 80.9051 120.46C81.2336 120.46 81.5589 120.525 81.862 120.651C82.1652 120.778 82.4403 120.963 82.6714 121.197C82.9025 121.43 83.0849 121.707 83.2083 122.012C83.3316 122.316 83.3933 122.642 83.3898 122.971ZM86.3716 132.648H75.4386C75.3443 132.65 75.2507 132.632 75.164 132.595C75.0772 132.558 74.9992 132.503 74.9351 132.434C74.8709 132.365 74.822 132.283 74.7916 132.194C74.7612 132.104 74.7499 132.01 74.7585 131.916C74.9697 130.431 75.7111 129.073 76.8457 128.092C77.9803 127.111 79.4315 126.574 80.9312 126.58C82.4273 126.567 83.8763 127.103 85.004 128.086C86.1318 129.07 86.8602 130.432 87.0516 131.916C87.0644 132.011 87.0561 132.107 87.0272 132.198C86.9984 132.289 86.9497 132.373 86.8846 132.443C86.8196 132.513 86.7399 132.567 86.6512 132.603C86.5624 132.638 86.4669 132.654 86.3716 132.648Z" fill="white"/>
<path id="Vector_25" d="M149.145 126.58C149.14 126.787 149.055 126.983 148.909 127.129C148.763 127.275 148.567 127.36 148.36 127.365H130.208C130.105 127.365 130.003 127.345 129.907 127.305C129.812 127.266 129.725 127.208 129.652 127.135C129.579 127.063 129.521 126.976 129.482 126.881C129.442 126.785 129.422 126.683 129.422 126.58C129.422 126.477 129.442 126.375 129.482 126.279C129.521 126.184 129.579 126.098 129.652 126.025C129.725 125.952 129.812 125.894 129.907 125.855C130.003 125.815 130.105 125.795 130.208 125.795H148.36C148.567 125.8 148.763 125.885 148.909 126.031C149.055 126.177 149.14 126.374 149.145 126.58ZM149.145 132.544C149.14 132.75 149.055 132.947 148.909 133.093C148.763 133.239 148.567 133.323 148.36 133.328H96.7291C96.521 133.328 96.3214 133.245 96.1743 133.098C96.0271 132.951 95.9445 132.752 95.9445 132.544C95.9445 132.335 96.0271 132.136 96.1743 131.989C96.3214 131.842 96.521 131.759 96.7291 131.759H148.36C148.567 131.764 148.763 131.848 148.909 131.994C149.055 132.14 149.14 132.337 149.145 132.544ZM138.892 120.564C138.897 120.358 138.981 120.161 139.127 120.015C139.273 119.869 139.47 119.785 139.676 119.78H148.36C148.463 119.779 148.565 119.8 148.661 119.839C148.756 119.878 148.843 119.936 148.916 120.009C148.989 120.082 149.047 120.168 149.086 120.264C149.126 120.359 149.146 120.461 149.146 120.564C149.146 120.667 149.126 120.77 149.086 120.865C149.047 120.96 148.989 121.047 148.916 121.12C148.843 121.193 148.756 121.25 148.661 121.29C148.565 121.329 148.463 121.349 148.36 121.349H139.676C139.573 121.351 139.47 121.332 139.374 121.293C139.278 121.254 139.19 121.197 139.117 121.123C139.044 121.05 138.986 120.963 138.947 120.867C138.909 120.771 138.89 120.668 138.892 120.564ZM95.9445 120.564C95.9495 120.358 96.0338 120.161 96.1799 120.015C96.3259 119.869 96.5226 119.785 96.7291 119.78H134.55C134.653 119.779 134.755 119.8 134.851 119.839C134.946 119.878 135.033 119.936 135.106 120.009C135.179 120.082 135.237 120.168 135.276 120.264C135.316 120.359 135.336 120.461 135.336 120.564C135.336 120.667 135.316 120.77 135.276 120.865C135.237 120.96 135.179 121.047 135.106 121.12C135.033 121.193 134.946 121.25 134.851 121.29C134.755 121.329 134.653 121.349 134.55 121.349H96.7291C96.6244 121.355 96.5196 121.339 96.4215 121.302C96.3235 121.265 96.2344 121.207 96.1602 121.133C96.0861 121.059 96.0285 120.97 95.9913 120.872C95.9541 120.774 95.9381 120.669 95.9445 120.564ZM95.9445 126.58C95.9495 126.374 96.0338 126.177 96.1799 126.031C96.3259 125.885 96.5226 125.8 96.7291 125.795H124.14C124.348 125.796 124.547 125.879 124.694 126.026C124.841 126.173 124.923 126.372 124.923 126.58C124.923 126.788 124.841 126.987 124.694 127.134C124.547 127.282 124.348 127.364 124.14 127.365H96.7291C96.6255 127.367 96.5226 127.348 96.4266 127.309C96.3305 127.27 96.2432 127.212 96.17 127.139C96.0967 127.066 96.039 126.979 96.0002 126.883C95.9615 126.787 95.9425 126.684 95.9445 126.58Z" fill="#DDE3EA"/>
<path id="Vector_26" d="M168.238 131.288C168.081 131.654 167.977 132.073 167.82 132.439C167.72 132.761 167.598 133.076 167.453 133.381C167.401 133.59 167.192 133.642 166.983 133.59C164.217 132.486 161.807 130.644 160.018 128.263C158.228 125.883 157.127 123.057 156.834 120.094C156.834 119.884 156.939 119.727 157.148 119.727C157.462 119.727 157.776 119.675 158.142 119.675C158.561 119.623 158.927 119.623 159.345 119.57C159.555 119.57 159.711 119.675 159.711 119.884C159.825 120.94 160.071 121.977 160.444 122.971C160.478 123.061 160.475 123.161 160.436 123.249C160.397 123.337 160.324 123.406 160.235 123.441C159.973 123.546 159.711 123.651 159.45 123.755C159.241 123.808 159.188 124.017 159.241 124.226C160.224 126.555 161.77 128.604 163.739 130.19C163.818 130.245 163.915 130.27 164.011 130.261C164.107 130.251 164.196 130.207 164.262 130.137C164.419 129.928 164.629 129.666 164.786 129.457C164.809 129.417 164.841 129.384 164.88 129.358C164.918 129.333 164.962 129.318 165.008 129.313C165.054 129.307 165.1 129.313 165.143 129.329C165.186 129.345 165.225 129.371 165.256 129.405C166.103 130.042 167.036 130.553 168.029 130.922C168.186 130.922 168.29 131.131 168.238 131.288Z" fill="#291B60"/>
<path id="Vector_27" d="M91.6027 161.158C91.6016 163.179 91.0206 165.158 89.9287 166.859C88.549 169.019 86.4362 170.609 83.9785 171.336C81.5208 172.063 78.8833 171.879 76.5504 170.818C74.2176 169.756 72.346 167.889 71.2796 165.558C70.2133 163.227 70.0236 160.59 70.7456 158.131C71.4676 155.672 73.0526 153.556 75.2096 152.171C77.3666 150.787 79.9507 150.228 82.4872 150.596C85.0236 150.964 87.342 152.235 89.0166 154.175C90.6912 156.115 91.6094 158.595 91.6027 161.158Z" fill="#BA93DF"/>
<path id="Vector_28" d="M83.3898 157.548C83.3897 158.214 83.1251 158.853 82.6542 159.323C82.1834 159.794 81.5448 160.059 80.8789 160.059C80.5519 160.058 80.2285 159.992 79.9273 159.865C79.6261 159.737 79.3531 159.552 79.1244 159.318C78.8956 159.084 78.7156 158.808 78.5947 158.504C78.4738 158.2 78.4146 157.875 78.4203 157.548C78.4176 156.89 78.6741 156.258 79.1343 155.788C79.5944 155.318 80.2213 155.048 80.8789 155.037C81.5421 155.046 82.1756 155.314 82.6445 155.783C83.1135 156.252 83.3809 156.885 83.3898 157.548ZM86.3716 167.278H75.4386C75.3443 167.28 75.2507 167.261 75.164 167.224C75.0772 167.188 74.9992 167.133 74.9351 167.064C74.8709 166.995 74.822 166.913 74.7916 166.823C74.7612 166.734 74.7499 166.64 74.7585 166.546C74.9697 165.061 75.7111 163.703 76.8457 162.722C77.9803 161.741 79.4315 161.204 80.9312 161.21C82.4273 161.197 83.8763 161.733 85.004 162.716C86.1318 163.699 86.8602 165.062 87.0516 166.546C87.0602 166.64 87.0489 166.734 87.0185 166.823C86.9881 166.913 86.9392 166.995 86.8751 167.064C86.8109 167.133 86.7329 167.188 86.6462 167.224C86.5594 167.261 86.4658 167.28 86.3716 167.278Z" fill="white"/>
<path id="Vector_29" d="M149.145 161.158C149.14 161.364 149.055 161.561 148.909 161.707C148.763 161.853 148.567 161.937 148.36 161.942H130.208C130.105 161.942 130.003 161.922 129.907 161.883C129.812 161.844 129.725 161.786 129.652 161.713C129.579 161.64 129.521 161.553 129.482 161.458C129.442 161.363 129.422 161.261 129.422 161.158C129.422 161.054 129.442 160.952 129.482 160.857C129.521 160.762 129.579 160.675 129.652 160.602C129.725 160.529 129.812 160.472 129.907 160.432C130.003 160.393 130.105 160.373 130.208 160.373H148.36C148.567 160.378 148.763 160.462 148.909 160.608C149.055 160.754 149.14 160.951 149.145 161.158ZM149.145 167.173C149.14 167.38 149.055 167.576 148.909 167.723C148.763 167.869 148.567 167.953 148.36 167.958H96.7291C96.5213 167.958 96.3221 167.875 96.1752 167.728C96.0284 167.581 95.9459 167.381 95.9459 167.173C95.9459 166.965 96.0284 166.766 96.1752 166.619C96.3221 166.472 96.5213 166.389 96.7291 166.389H148.36C148.464 166.387 148.566 166.406 148.663 166.444C148.759 166.483 148.846 166.541 148.919 166.614C148.992 166.687 149.05 166.775 149.089 166.871C149.128 166.967 149.147 167.07 149.145 167.173ZM138.892 155.194C138.897 154.988 138.981 154.791 139.127 154.645C139.273 154.499 139.47 154.414 139.676 154.409H148.36C148.568 154.409 148.768 154.492 148.915 154.639C149.062 154.786 149.145 154.986 149.145 155.194C149.145 155.402 149.062 155.602 148.915 155.749C148.768 155.896 148.568 155.979 148.36 155.979H139.676C139.47 155.974 139.273 155.889 139.127 155.743C138.981 155.597 138.897 155.401 138.892 155.194ZM95.9445 155.194C95.9495 154.988 96.0338 154.791 96.1799 154.645C96.3259 154.499 96.5226 154.414 96.7291 154.409H134.55C134.758 154.409 134.958 154.492 135.105 154.639C135.252 154.786 135.335 154.986 135.335 155.194C135.335 155.402 135.252 155.602 135.105 155.749C134.958 155.896 134.758 155.979 134.55 155.979H96.7291C96.6256 155.981 96.5227 155.962 96.4266 155.923C96.3305 155.884 96.2432 155.827 96.17 155.753C96.0967 155.68 96.039 155.593 96.0002 155.497C95.9615 155.401 95.9425 155.298 95.9445 155.194ZM95.9445 161.158C95.9495 160.951 96.0338 160.754 96.1799 160.608C96.3259 160.462 96.5226 160.378 96.7291 160.373H124.14C124.348 160.373 124.547 160.456 124.694 160.603C124.841 160.75 124.923 160.95 124.923 161.158C124.923 161.365 124.841 161.565 124.694 161.712C124.547 161.859 124.348 161.942 124.14 161.942H96.7291C96.6256 161.944 96.5226 161.925 96.4266 161.886C96.3305 161.848 96.2432 161.79 96.17 161.717C96.0967 161.643 96.039 161.556 96.0002 161.46C95.9615 161.364 95.9425 161.261 95.9445 161.158Z" fill="#DDE3EA"/>
<path id="Vector_30" d="M168.238 165.918C168.081 166.284 167.977 166.703 167.82 167.069C167.72 167.391 167.598 167.706 167.453 168.01C167.401 168.22 167.192 168.272 166.983 168.22C164.217 167.116 161.807 165.273 160.018 162.893C158.228 160.513 157.127 157.687 156.834 154.723C156.834 154.514 156.939 154.357 157.148 154.357C157.462 154.357 157.776 154.305 158.142 154.305C158.561 154.253 158.927 154.253 159.345 154.2C159.555 154.2 159.711 154.305 159.711 154.514C159.825 155.57 160.071 156.606 160.444 157.6C160.478 157.691 160.475 157.791 160.436 157.879C160.397 157.967 160.324 158.036 160.235 158.071C159.973 158.176 159.711 158.28 159.45 158.385C159.241 158.437 159.188 158.647 159.241 158.856C160.224 161.185 161.77 163.234 163.739 164.819C163.818 164.875 163.915 164.9 164.011 164.89C164.107 164.881 164.196 164.837 164.262 164.767C164.419 164.558 164.629 164.296 164.786 164.087C164.809 164.047 164.841 164.013 164.88 163.988C164.918 163.963 164.962 163.947 165.008 163.942C165.054 163.937 165.1 163.943 165.143 163.959C165.186 163.975 165.225 164.001 165.256 164.035C166.103 164.671 167.036 165.182 168.029 165.552C168.186 165.499 168.29 165.709 168.238 165.918ZM244.037 125.482V197.827C244.034 198.923 243.598 199.973 242.824 200.747C242.049 201.522 240.999 201.958 239.904 201.96H193.086V121.401H239.904C240.446 121.388 240.985 121.484 241.489 121.683C241.993 121.883 242.452 122.182 242.838 122.563C243.224 122.944 243.529 123.399 243.735 123.9C243.941 124.402 244.043 124.939 244.037 125.482Z" fill="#291B60"/>
<path id="Vector_31" d="M193.086 121.349V201.908H187.907C186.812 201.905 185.762 201.469 184.987 200.695C184.213 199.92 183.777 198.871 183.774 197.775V125.482C183.777 124.942 183.885 124.408 184.094 123.911C184.304 123.413 184.609 122.962 184.993 122.583C185.377 122.204 185.832 121.904 186.332 121.701C186.832 121.499 187.367 121.397 187.907 121.401H193.086V121.349Z" fill="#958ED6"/>
<path id="Vector_32" d="M193.086 121.349V201.908H187.907C186.812 201.905 185.762 201.469 184.987 200.695C184.213 199.92 183.777 198.871 183.774 197.775V125.482C183.777 124.942 183.885 124.408 184.094 123.911C184.304 123.413 184.609 122.962 184.993 122.583C185.377 122.204 185.832 121.904 186.332 121.701C186.832 121.499 187.367 121.397 187.907 121.401H193.086V121.349Z" fill="#291B60"/>
<path id="Vector_33" d="M187.436 132.23V136.781C187.439 137.001 187.398 137.22 187.315 137.425C187.232 137.629 187.108 137.815 186.952 137.971C186.796 138.127 186.611 138.25 186.406 138.333C186.202 138.416 185.983 138.458 185.762 138.455H182.571C182.128 138.452 181.704 138.274 181.391 137.961C181.078 137.648 180.9 137.224 180.897 136.781V132.23C180.894 132.009 180.936 131.79 181.019 131.586C181.102 131.381 181.225 131.196 181.381 131.04C181.537 130.884 181.723 130.76 181.927 130.677C182.132 130.594 182.351 130.553 182.571 130.556H185.762C186.205 130.559 186.629 130.736 186.943 131.049C187.256 131.363 187.433 131.787 187.436 132.23ZM187.436 146.667V151.219C187.439 151.439 187.398 151.658 187.315 151.862C187.232 152.067 187.108 152.253 186.952 152.409C186.796 152.565 186.611 152.688 186.406 152.771C186.202 152.854 185.983 152.895 185.762 152.892H182.571C182.128 152.889 181.704 152.712 181.391 152.399C181.078 152.086 180.9 151.662 180.897 151.219V146.667C180.894 146.447 180.936 146.228 181.019 146.023C181.102 145.819 181.225 145.633 181.381 145.477C181.537 145.321 181.723 145.198 181.927 145.115C182.132 145.032 182.351 144.991 182.571 144.994H185.762C186.205 144.997 186.629 145.174 186.943 145.487C187.256 145.8 187.433 146.224 187.436 146.667ZM187.436 170.312V174.863C187.439 175.084 187.398 175.303 187.315 175.507C187.232 175.711 187.108 175.897 186.952 176.053C186.796 176.209 186.611 176.332 186.406 176.415C186.202 176.499 185.983 176.54 185.762 176.537H182.571C182.128 176.534 181.704 176.357 181.391 176.043C181.078 175.73 180.9 175.306 180.897 174.863V170.312C180.894 170.091 180.936 169.872 181.019 169.668C181.102 169.464 181.225 169.278 181.381 169.122C181.537 168.966 181.723 168.843 181.927 168.76C182.132 168.676 182.351 168.635 182.571 168.638H185.762C185.983 168.635 186.202 168.676 186.406 168.759C186.611 168.842 186.797 168.966 186.953 169.122C187.109 169.278 187.232 169.463 187.315 169.668C187.398 169.872 187.439 170.091 187.436 170.312ZM187.436 184.697V189.249C187.439 189.469 187.398 189.688 187.315 189.892C187.232 190.097 187.108 190.283 186.952 190.439C186.796 190.595 186.611 190.718 186.406 190.801C186.202 190.884 185.983 190.925 185.762 190.922H182.571C182.128 190.919 181.704 190.742 181.391 190.429C181.078 190.116 180.9 189.692 180.897 189.249V184.697C180.894 184.477 180.936 184.258 181.019 184.053C181.102 183.849 181.225 183.663 181.381 183.507C181.537 183.351 181.723 183.228 181.927 183.145C182.132 183.062 182.351 183.021 182.571 183.023H185.762C186.205 183.027 186.629 183.204 186.943 183.517C187.256 183.83 187.433 184.254 187.436 184.697Z" fill="#FDD333"/>
<path id="Vector_34" d="M218.561 179.99C230.146 179.99 239.538 170.598 239.538 159.013C239.538 147.428 230.146 138.036 218.561 138.036C206.976 138.036 197.584 147.428 197.584 159.013C197.584 170.598 206.976 179.99 218.561 179.99Z" fill="white"/>
<path id="Vector_35" d="M231.534 165.709L231.116 167.016C231.096 167.079 231.064 167.137 231.022 167.187C230.979 167.237 230.927 167.278 230.869 167.307C230.81 167.336 230.746 167.353 230.681 167.357C230.615 167.361 230.55 167.352 230.488 167.33L230.331 167.278C230.279 167.644 230.174 168.01 230.122 168.377C229.546 171.097 226.669 172.718 224.106 171.724C219.969 170.118 216.21 167.671 213.068 164.538C209.925 161.404 207.468 157.653 205.85 153.52C205.621 152.907 205.528 152.251 205.577 151.599C205.626 150.946 205.817 150.312 206.135 149.74C206.453 149.168 206.892 148.672 207.421 148.286C207.949 147.9 208.556 147.633 209.197 147.504C209.459 147.452 209.668 147.4 209.93 147.348C209.88 147.222 209.879 147.082 209.928 146.956C209.976 146.83 210.07 146.727 210.191 146.668L211.447 146.04C211.572 145.985 211.713 145.982 211.84 146.031C211.968 146.08 212.071 146.177 212.127 146.301L215.841 154.619C215.895 154.744 215.898 154.885 215.85 155.012C215.801 155.14 215.704 155.243 215.579 155.299L214.324 155.927C214.199 155.981 214.058 155.984 213.93 155.935C213.803 155.886 213.7 155.789 213.644 155.665L213.382 155.142C213.267 155.223 213.144 155.293 213.016 155.351C212.88 155.429 212.762 155.534 212.669 155.659C212.576 155.785 212.51 155.929 212.476 156.081C212.441 156.234 212.439 156.392 212.469 156.545C212.499 156.699 212.561 156.844 212.65 156.973C214.74 160.162 217.465 162.886 220.654 164.976C220.912 165.129 221.219 165.176 221.512 165.108C221.804 165.04 222.059 164.862 222.223 164.61C222.223 164.558 222.275 164.558 222.275 164.506L221.857 164.349C221.794 164.329 221.736 164.297 221.686 164.255C221.636 164.212 221.596 164.16 221.566 164.101C221.537 164.043 221.52 163.979 221.516 163.914C221.512 163.848 221.521 163.783 221.543 163.721L221.961 162.413C221.981 162.351 222.013 162.293 222.055 162.243C222.098 162.193 222.15 162.152 222.208 162.123C222.267 162.093 222.331 162.076 222.396 162.072C222.462 162.068 222.527 162.077 222.589 162.099L231.168 165.186C231.234 165.175 231.302 165.182 231.363 165.208C231.425 165.234 231.478 165.277 231.516 165.332C231.554 165.386 231.577 165.451 231.58 165.518C231.583 165.584 231.567 165.651 231.534 165.709Z" fill="#FB6039"/>
<path id="Vector_36" d="M11.1485 87.8177C8.84685 86.8761 6.54518 85.7776 4.87123 83.9467C1.88951 80.7034 1.62795 75.5769 3.45883 71.6013C5.28971 67.5734 8.79454 64.5917 12.6655 62.4992C15.3334 61.0345 18.4197 59.7791 19.8321 57.0589C21.2445 54.391 20.5645 51.1478 21.0353 48.166C21.7153 43.615 25.3248 39.587 29.7712 38.4885C34.2699 37.4423 39.3441 39.4301 41.7504 43.3534C43.2151 45.7074 43.6859 48.5322 43.5813 51.3047C43.4767 54.0772 42.7443 56.745 41.9597 59.3606C39.9802 65.6168 37.3135 71.6344 34.0084 77.3032C32.3537 80.1427 30.5372 82.8848 28.5681 85.516C27.2603 87.2423 24.9063 91.5318 22.6046 91.5841C20.9307 91.6364 18.629 90.4855 17.0597 89.9624C15.1242 89.3347 13.1363 88.6024 11.1485 87.8177Z" fill="#7C3A3A"/>
<path id="Vector_37" d="M26.8941 200.705C26.8418 201.071 26.7895 201.437 26.7372 201.646C26.7169 201.726 26.669 201.796 26.602 201.844C26.5349 201.892 26.4531 201.914 26.371 201.908H9.89308C9.84048 201.908 9.78853 201.896 9.74068 201.874C9.69282 201.853 9.65015 201.821 9.61552 201.781C9.58088 201.742 9.55507 201.695 9.53979 201.645C9.52451 201.594 9.52012 201.541 9.5269 201.489L10.1546 198.821L12.1948 190.242L18.7336 190.922C18.7336 190.922 18.2628 194.793 23.3893 196.258C26.5803 197.095 26.9464 199.292 26.8941 200.705Z" fill="#292561"/>
<path id="Vector_38" d="M20.6168 194.898C18.4197 193.172 18.7336 190.922 18.7336 190.922L12.1947 190.242L11.0962 194.95H20.6168V194.898Z" fill="#191937"/>
<path id="Vector_39" d="M54.2004 200.705C54.1481 201.071 54.0958 201.437 54.0434 201.646C54.0232 201.726 53.9753 201.796 53.9082 201.844C53.8412 201.892 53.7594 201.914 53.6773 201.908H37.1993C37.1468 201.908 37.0948 201.896 37.0469 201.874C36.9991 201.853 36.9564 201.821 36.9218 201.781C36.8872 201.742 36.8613 201.695 36.8461 201.645C36.8308 201.594 36.8264 201.541 36.8332 201.489L37.4609 198.821L39.501 190.242L46.0399 190.922C46.0399 190.922 45.5691 194.793 50.6956 196.258C53.8865 197.095 54.305 199.292 54.2004 200.705Z" fill="#292561"/>
<path id="Vector_40" d="M47.9754 194.898C45.7784 193.172 46.0922 190.922 46.0922 190.922L39.5534 190.242L38.4548 194.95H47.9754V194.898Z" fill="#191937"/>
<path id="Vector_41" d="M29.7711 88.8116C29.7711 88.8116 38.664 83.8944 38.0886 89.5439C37.5131 95.2458 29.7711 93.0488 29.7711 93.0488V88.8116Z" fill="black"/>
<path id="Vector_42" d="M53.9388 192.544H30.7651C30.7651 192.544 26.371 184.959 29.7189 172.718C29.8758 172.143 30.0327 171.463 30.1896 170.783C30.4512 169.423 30.7128 167.853 30.922 166.179C32.7529 152.369 33.0668 129.039 33.0668 129.039V129.143C32.8575 130.765 29.2481 156.973 26.9464 163.93C24.5924 171.149 25.4294 192.596 25.4294 192.596H4.08651C4.08651 192.596 -2.92315 181.35 1.41865 170.521C5.76046 159.693 15.3857 133.747 14.8102 124.645C13.9733 111.515 17.8966 101.68 17.8966 101.68H44.5228C44.5228 101.68 50.1201 122.134 51.0617 145.935C51.951 169.632 48.7077 176.485 53.9388 192.544Z" fill="#291B60"/>
<path id="Vector_43" d="M34.6884 101.575C37.1994 106.388 39.3964 116.955 39.7103 124.801C40.0242 134.008 33.6422 155.194 30.9744 166.127C32.8052 152.317 33.1191 128.986 33.1191 128.986C33.1191 128.986 36.7286 112.561 34.0607 101.575H34.6884Z" fill="#291B60"/>
<path id="Vector_44" d="M55.5081 89.544C55.3039 89.6042 55.0931 89.6393 54.8804 89.6486C50.0155 89.4916 39.501 77.8786 39.501 77.8786L40.1287 64.6963C40.1287 64.6963 49.597 73.066 54.0434 79.3433C54.0957 79.3957 52.3172 84.9929 55.5081 89.544Z" fill="#FB6039"/>
<path id="Vector_45" d="M69.6321 71.706C69.6321 71.706 60.4254 88.3408 55.5082 89.544C52.3172 84.9406 54.0958 79.3434 54.0958 79.3434L67.0166 68.7766C67.0166 68.7766 68.6382 59.5176 73.3462 61.8715C78.0019 64.2778 69.6321 71.706 69.6321 71.706Z" fill="#FFD1C4"/>
<path id="Vector_46" d="M39.8149 64.3825C34.5838 60.6684 20.7737 61.1915 18.0012 65.5856C14.2349 71.6537 21.6107 86.1961 17.8966 101.628C17.8966 103.773 44.5229 103.773 44.5229 101.628C44.5229 101.576 46.6676 69.2997 39.8149 64.3825Z" fill="#FB6039"/>
<path id="Vector_47" d="M21.2968 75.5247C20.2506 78.0879 12.7701 86.0392 12.7701 86.0392C12.7701 86.0392 7.53901 88.6024 6.38817 93.9904C5.72863 93.8377 5.09443 93.5911 4.50499 93.2581C1.05247 91.1133 4.71424 81.0696 9.21297 74.2169C14.601 66.0041 19.5705 64.1732 19.5705 64.1732C22.0291 67.4688 23.4415 70.4505 21.2968 75.5247Z" fill="#FB6039"/>
<path id="Vector_48" d="M33.6945 62.8131L33.7468 58.6806C33.7468 58.6806 37.6178 58.8375 38.5594 57.6344C39.3964 56.5358 41.4888 42.3073 35.1069 42.1504C26.0571 41.8888 24.2785 48.7415 25.0632 51.4094C25.8478 54.0772 26.9464 55.9604 27.4172 57.5821C27.7833 58.8375 27.6787 62.7085 27.6787 62.7085C27.6264 64.0163 33.6422 64.1209 33.6945 62.8131" fill="#FFD1C4"/>
<path id="Vector_49" d="M29.6142 50.6247C29.405 50.6247 28.9342 47.0153 26.9464 48.7938C25.1678 50.4155 27.9926 53.2403 27.9926 53.2403C29.6666 56.065 27.6264 61.9239 27.6264 61.9239C26.2493 60.6251 25.0999 59.1044 24.2262 57.4251C22.9708 54.8619 22.7092 48.0092 26.0048 42.935C28.4111 39.2209 38.8733 40.0579 39.501 44.0335C40.181 48.0092 29.8758 50.6247 29.6142 50.6247Z" fill="#7C3A3A"/>
<path id="Vector_50" d="M49.2308 78.5064L46.0921 98.5414C46.0647 98.7441 45.9648 98.9299 45.811 99.0646C45.6571 99.1992 45.4596 99.2735 45.2552 99.2738H31.7066C31.5825 99.2751 31.4595 99.2489 31.3467 99.1971C31.2338 99.1453 31.1338 99.0692 31.0538 98.9742C30.9738 98.8792 30.9158 98.7677 30.884 98.6477C30.8521 98.5276 30.8472 98.402 30.8697 98.2799L34.0083 78.2448C34.0357 78.0422 34.1356 77.8563 34.2895 77.7217C34.4434 77.5871 34.6408 77.5127 34.8453 77.5125H48.3415C48.4667 77.5145 48.5902 77.5424 48.7041 77.5945C48.818 77.6466 48.9199 77.7216 49.0035 77.815C49.087 77.9083 49.1503 78.0179 49.1894 78.1369C49.2285 78.2559 49.2426 78.3817 49.2308 78.5064Z" fill="#D9E9FD"/>
<path id="Vector_51" d="M38.1409 91.061C36.8331 97.7568 29.7712 93.0488 29.7712 93.0488C29.7712 93.0488 13.2409 95.7167 6.38818 93.9904C6.91788 91.6511 8.1828 89.5429 9.99764 87.9747C10.8358 87.2143 11.7674 86.5639 12.7701 86.0392L29.7712 88.8117C29.7712 88.8117 39.3964 84.3652 38.1409 91.061Z" fill="#FFD1C4"/>
</g>
</svg>
