<svg width="26" height="26" viewBox="0 0 26 26" fill="none" xmlns="http://www.w3.org/2000/svg">
<g id="file 1">
<path id="Vector" d="M23.9449 5.43518L18.6331 0.218201C18.4907 0.0783539 18.2991 0 18.0993 0H4.67029C3.10321 0 1.82812 1.27489 1.82812 2.84216V23.1578C1.82812 24.7249 3.10301 26 4.67029 26H21.3307C22.8978 26 24.1729 24.7251 24.1729 23.1578V5.9787C24.1729 5.77419 24.0907 5.5784 23.9449 5.43518ZM18.8611 2.57755L21.5485 5.21698H19.1033C18.9698 5.21698 18.8611 5.10828 18.8611 4.97478V2.57755ZM21.3307 24.4766H4.67029C3.94328 24.4766 3.35156 23.885 3.35156 23.1578V2.84216C3.35156 2.11496 3.94308 1.52344 4.67029 1.52344H17.3378V4.97478C17.3378 5.94835 18.1299 6.74042 19.1035 6.74042H22.6494V23.1578C22.6494 23.885 22.0579 24.4766 21.3307 24.4766Z" fill="white"/>
<path id="Vector_2" d="M18.2886 12.0859H7.55078C7.13005 12.0859 6.78906 12.4269 6.78906 12.8477C6.78906 13.2684 7.13005 13.6094 7.55078 13.6094H18.2886C18.7094 13.6094 19.0504 13.2684 19.0504 12.8477C19.0504 12.4269 18.7094 12.0859 18.2886 12.0859Z" fill="white"/>
<path id="Vector_3" d="M7.55078 16.6562H16.3062C16.7269 16.6562 17.0679 16.3153 17.0679 15.8945C17.0679 15.4738 16.7269 15.1328 16.3062 15.1328H7.55078C7.13005 15.1328 6.78906 15.4738 6.78906 15.8945C6.78906 16.3153 7.13005 16.6562 7.55078 16.6562Z" fill="white"/>
<path id="Vector_4" d="M17.3625 18.1797H7.55078C7.13005 18.1797 6.78906 18.5207 6.78906 18.9414C6.78906 19.3621 7.13005 19.7031 7.55078 19.7031H17.3625C17.783 19.7031 18.1242 19.3621 18.1242 18.9414C18.1242 18.5207 17.783 18.1797 17.3625 18.1797Z" fill="white"/>
</g>
</svg>
