<svg width="20" height="20" viewBox="0 0 20 20" fill="none" xmlns="http://www.w3.org/2000/svg">
<g id="Face ID">
<path id="Vector" d="M8.04132 13.3333C8.49999 13.6667 9.16665 14 9.99999 14C10.8333 14 11.5 13.6667 11.9587 13.3333" stroke="#FB6039" stroke-width="2.6" stroke-miterlimit="10" stroke-linecap="round" stroke-linejoin="round"/>
<path id="Vector_2" d="M13.3333 8V9.33333" stroke="#FB6039" stroke-width="2.6" stroke-miterlimit="10" stroke-linecap="round" stroke-linejoin="round"/>
<path id="Vector_3" d="M6.66669 8V9.33333" stroke="#FB6039" stroke-width="2.6" stroke-miterlimit="10" stroke-linecap="round" stroke-linejoin="round"/>
<path id="Vector_4" d="M9.99998 8V10.6667C9.99998 11.0347 9.70131 11.3333 9.33331 11.3333" stroke="#FB6039" stroke-width="2.6" stroke-miterlimit="10" stroke-linecap="round" stroke-linejoin="round"/>
<g id="Group">
<path id="Vector_5" d="M17.3333 6V4.00001C17.3333 3.26334 16.7367 2.66667 16 2.66667H14" stroke="#FB6039" stroke-width="2.6" stroke-miterlimit="10" stroke-linecap="round" stroke-linejoin="round"/>
<path id="Vector_6" d="M6.00002 2.66667H4.00002C3.26335 2.66667 2.66669 3.26334 2.66669 4.00001V6" stroke="#FB6039" stroke-width="2.6" stroke-miterlimit="10" stroke-linecap="round" stroke-linejoin="round"/>
<path id="Vector_7" d="M14 17.3333H16C16.7367 17.3333 17.3333 16.7367 17.3333 16V14" stroke="#FB6039" stroke-width="2.6" stroke-miterlimit="10" stroke-linecap="round" stroke-linejoin="round"/>
<path id="Vector_8" d="M2.66669 14V16C2.66669 16.7367 3.26335 17.3333 4.00002 17.3333H6.00002" stroke="#FB6039" stroke-width="2.6" stroke-miterlimit="10" stroke-linecap="round" stroke-linejoin="round"/>
</g>
</g>
</svg>
