<svg width="24" height="24" viewBox="0 0 24 24" fill="none" xmlns="http://www.w3.org/2000/svg">
<g id="icon">
<path id="Shape" fill-rule="evenodd" clip-rule="evenodd" d="M12.2808 2.50403C12.4795 2.1902 12.8251 2 13.1966 2C13.6955 2 14.1 2.40446 14.1 2.90338V8.66672C14.1 8.86068 14.2365 9.02786 14.4266 9.06664L18.1677 9.83015C18.5718 9.91261 18.7706 10.372 18.5541 10.723L16.3851 14.2403L20.6839 18.2705C21.0869 18.6482 21.1073 19.281 20.7295 19.6839C20.3809 20.0559 19.8148 20.1019 19.4129 19.8096L19.3161 19.7295L3.31606 4.72954C2.91315 4.35181 2.89274 3.71897 3.27047 3.31606C3.61914 2.94414 4.18518 2.89814 4.5871 3.19035L4.68394 3.27046L9.14602 7.45366L12.2808 2.50403ZM7.28667 10.3895L14.5568 17.2052L11.9009 21.5121C11.7139 21.8154 11.3831 22 11.0268 22C10.4597 22 10 21.5403 10 20.9732V15.0569C10 15.0238 9.97664 14.9953 9.94419 14.9888L6.4569 14.2914C5.7547 14.1509 5.4118 13.3498 5.79495 12.7448L7.28667 10.3895Z" fill="#363D4E"/>
</g>
</svg>
