<svg width="20" height="20" viewBox="0 0 20 20" fill="none" xmlns="http://www.w3.org/2000/svg">
<g id="feedback 1" clip-path="url(#clip0_637_1603)">
<path id="Vector" d="M13.75 9.58333C13.75 16.025 13.825 15.725 13.525 16.25C13.3789 16.5031 13.1687 16.7133 12.9157 16.8596C12.6626 17.0059 12.3756 17.083 12.0833 17.0833H6.17916C5.82916 17.0833 6.00832 17.0208 2.49999 19.5833V17.0833H2.08332C1.6413 17.0833 1.21737 16.9077 0.904812 16.5952C0.592251 16.2826 0.416656 15.8587 0.416656 15.4167V9.58333C0.416656 9.1413 0.592251 8.71738 0.904812 8.40482C1.21737 8.09226 1.6413 7.91666 2.08332 7.91666H6.24999C6.24999 8.35869 6.42559 8.78261 6.73815 9.09518C7.05071 9.40774 7.47463 9.58333 7.91666 9.58333H13.75Z" fill="#FB6039"/>
<path id="Vector_2" d="M19.5833 2.08333C19.5833 8.525 19.6583 8.225 19.3583 8.75C18.875 9.58333 18.1083 9.58333 17.5 9.58333V12.0833L14.4125 9.82916C14.0708 9.4875 14.225 9.58333 7.91667 9.58333C7.47464 9.58333 7.05072 9.40774 6.73816 9.09518C6.4256 8.78261 6.25 8.35869 6.25 7.91666V2.08333C6.25 1.6413 6.4256 1.21738 6.73816 0.90482C7.05072 0.592259 7.47464 0.416664 7.91667 0.416664H17.9167C18.3587 0.416664 18.7826 0.592259 19.0952 0.90482C19.4077 1.21738 19.5833 1.6413 19.5833 2.08333Z" fill="#000032"/>
<path id="Vector_3" d="M17.9167 0.416664C6.97083 0.416664 7.775 0.391664 7.5 0.470831C7.5 2.6666 8.37227 4.77244 9.92491 6.32509C11.4776 7.87773 13.5834 8.75 15.7792 8.75H19.3583C19.6667 8.21666 19.5833 8.5 19.5833 2.08333C19.5833 1.6413 19.4077 1.21738 19.0952 0.90482C18.7826 0.592259 18.3587 0.416664 17.9167 0.416664ZM12.0833 7.56666C10 5.48333 9.58333 5.275 9.58333 4.45C9.58333 4.05217 9.74137 3.67064 10.0227 3.38934C10.304 3.10803 10.6855 2.95 11.0833 2.95C11.4518 2.9538 11.8067 3.08984 12.0833 3.33333C12.2984 3.13849 12.5656 3.01043 12.8522 2.96478C13.1388 2.91912 13.4326 2.95784 13.6976 3.07621C13.9626 3.19458 14.1874 3.38748 14.3447 3.63142C14.502 3.87535 14.5849 4.15976 14.5833 4.45C14.5833 5.25 14.2125 5.45416 12.0833 7.56666Z" fill="#000032"/>
<path id="Vector_4" d="M15.4167 4.12917C15.4167 4.9625 14.9708 5.20417 12.9167 7.24583C10.7167 5.04583 10.8333 5.1625 10.8 5.12083C10.5443 4.83557 10.4077 4.46305 10.4186 4.0801C10.4294 3.69714 10.5867 3.33293 10.8582 3.06257C11.1296 2.7922 11.4944 2.63629 11.8774 2.62698C12.2604 2.61766 12.6324 2.75565 12.9167 3.0125C13.1938 2.76709 13.5507 2.63084 13.9208 2.62917C14.1176 2.62917 14.3125 2.668 14.4942 2.74343C14.676 2.81886 14.8411 2.92942 14.98 3.06876C15.119 3.2081 15.2291 3.37349 15.304 3.55546C15.3789 3.73742 15.4172 3.93238 15.4167 4.12917Z" fill="#2969FF"/>
<path id="Vector_5" d="M15.4167 4.12916C15.4167 4.92916 14.9667 5.19583 13.5917 6.575C11.7292 4.7125 11.25 4.45 11.25 3.61666C11.249 3.26848 11.3699 2.93093 11.5917 2.6625C11.6987 2.64077 11.8075 2.6296 11.9167 2.62916C12.2852 2.63297 12.6401 2.769 12.9167 3.0125C13.1318 2.81765 13.3989 2.6896 13.6856 2.64394C13.9722 2.59829 14.2659 2.63701 14.5309 2.75537C14.7959 2.87374 15.0208 3.06665 15.178 3.31058C15.3353 3.55451 15.4182 3.83893 15.4167 4.12916Z" fill="#2969FF"/>
<path id="Vector_6" d="M13.5792 10.6625C13.2375 10.3208 13.3917 10.4167 7.08332 10.4167C6.6413 10.4167 6.21737 10.2411 5.90481 9.92851C5.59225 9.61595 5.41666 9.19203 5.41666 8.75V7.91667C1.73332 7.91667 1.92499 7.89583 1.66666 7.97083C1.66587 9.41447 2.04526 10.8329 2.76666 12.0833C2.92501 12.0527 3.08884 12.0687 3.23828 12.1294C3.38771 12.1901 3.51632 12.2928 3.60852 12.4252C3.70071 12.5575 3.75252 12.7138 3.75766 12.875C3.76281 13.0362 3.72106 13.1954 3.63749 13.3333C4.41349 14.2492 5.37999 14.9846 6.46954 15.4884C7.55909 15.9921 8.74545 16.252 9.94583 16.25H13.525C13.6719 15.9968 13.7495 15.7094 13.75 15.4167C13.75 10.2708 13.825 10.8333 13.5792 10.6625ZM7.42499 13.2583C7.36352 13.3951 7.2663 13.5127 7.14357 13.5988C7.02083 13.6849 6.87714 13.7364 6.72764 13.7476C6.57814 13.7589 6.42836 13.7297 6.29409 13.6629C6.15983 13.5962 6.04605 13.4945 5.96475 13.3686C5.88345 13.2426 5.83764 13.097 5.83215 12.9472C5.82666 12.7974 5.86169 12.6488 5.93355 12.5172C6.00542 12.3857 6.11145 12.2759 6.24047 12.1995C6.36949 12.1232 6.51673 12.083 6.66666 12.0833C6.80565 12.0836 6.94237 12.1187 7.06435 12.1853C7.18634 12.2519 7.28972 12.348 7.36509 12.4648C7.44047 12.5816 7.48543 12.7153 7.49589 12.8539C7.50635 12.9925 7.48198 13.1316 7.42499 13.2583ZM11.175 13.2583C11.1135 13.3951 11.0163 13.5127 10.8936 13.5988C10.7708 13.6849 10.6271 13.7364 10.4776 13.7476C10.3281 13.7589 10.1784 13.7297 10.0441 13.6629C9.90983 13.5962 9.79605 13.4945 9.71475 13.3686C9.63345 13.2426 9.58764 13.097 9.58215 12.9472C9.57666 12.7974 9.61169 12.6488 9.68355 12.5172C9.75542 12.3857 9.86145 12.2759 9.99047 12.1995C10.1195 12.1232 10.2667 12.083 10.4167 12.0833C10.5557 12.0836 10.6924 12.1187 10.8144 12.1853C10.9363 12.2519 11.0397 12.348 11.1151 12.4648C11.1905 12.5816 11.2354 12.7153 11.2459 12.8539C11.2564 12.9925 11.232 13.1316 11.175 13.2583Z" fill="#FB6039"/>
<path id="Vector_7" d="M4.16667 12.5C4.16698 12.6499 4.12684 12.7972 4.05047 12.9262C3.97411 13.0552 3.86435 13.1612 3.73276 13.2331C3.60118 13.305 3.45265 13.34 3.30282 13.3345C3.15299 13.329 3.00742 13.2832 2.88145 13.2019C2.75548 13.1206 2.65377 13.0068 2.58706 12.8726C2.52034 12.7383 2.49108 12.5885 2.50236 12.439C2.51365 12.2895 2.56506 12.1458 2.65117 12.0231C2.73729 11.9004 2.85492 11.8031 2.99167 11.7417C3.11844 11.6847 3.25745 11.6603 3.39605 11.6708C3.53465 11.6812 3.66844 11.7262 3.78522 11.8016C3.902 11.8769 3.99808 11.9803 4.0647 12.1023C4.13132 12.2243 4.16638 12.361 4.16667 12.5Z" fill="#DAD7E5"/>
<path id="Vector_8" d="M4.09166 12.8417C3.93773 12.9101 3.76667 12.9303 3.60104 12.8995C3.43542 12.8688 3.28299 12.7886 3.16388 12.6694C3.04476 12.5503 2.96454 12.3979 2.9338 12.2323C2.90305 12.0667 2.92323 11.8956 2.99166 11.7417C3.14559 11.6732 3.31664 11.6531 3.48227 11.6838C3.6479 11.7145 3.80032 11.7948 3.91944 11.9139C4.03855 12.033 4.11877 12.1854 4.14952 12.3511C4.18026 12.5167 4.16009 12.6877 4.09166 12.8417Z" fill="#EDEBF2"/>
<path id="Vector_9" d="M7.91667 12.5C7.91698 12.6499 7.87684 12.7972 7.80047 12.9262C7.72411 13.0552 7.61435 13.1612 7.48276 13.2331C7.35118 13.305 7.20265 13.34 7.05282 13.3345C6.90299 13.329 6.75742 13.2832 6.63145 13.2019C6.50548 13.1206 6.40377 13.0068 6.33706 12.8726C6.27034 12.7383 6.24108 12.5885 6.25236 12.439C6.26365 12.2895 6.31506 12.1458 6.40117 12.0231C6.48729 11.9004 6.60492 11.8031 6.74167 11.7417C6.86844 11.6847 7.00745 11.6603 7.14605 11.6708C7.28465 11.6812 7.41844 11.7262 7.53522 11.8016C7.652 11.8769 7.74808 11.9803 7.8147 12.1023C7.88132 12.2243 7.91638 12.361 7.91667 12.5Z" fill="#DAD7E5"/>
<path id="Vector_10" d="M7.84166 12.8417C7.68773 12.9101 7.51667 12.9303 7.35104 12.8995C7.18542 12.8688 7.033 12.7886 6.91388 12.6694C6.79476 12.5503 6.71454 12.3979 6.6838 12.2323C6.65305 12.0667 6.67323 11.8956 6.74166 11.7417C6.89559 11.6732 7.06665 11.6531 7.23227 11.6838C7.3979 11.7145 7.55032 11.7948 7.66944 11.9139C7.78855 12.033 7.86877 12.1854 7.89952 12.3511C7.93026 12.5167 7.91009 12.6877 7.84166 12.8417Z" fill="#EDEBF2"/>
<path id="Vector_11" d="M11.6667 12.5C11.667 12.6499 11.6268 12.7972 11.5505 12.9262C11.4741 13.0552 11.3643 13.1612 11.2328 13.2331C11.1012 13.305 10.9526 13.34 10.8028 13.3345C10.653 13.329 10.5074 13.2832 10.3814 13.2019C10.2555 13.1206 10.1538 13.0068 10.0871 12.8726C10.0203 12.7383 9.99108 12.5885 10.0024 12.439C10.0136 12.2895 10.0651 12.1458 10.1512 12.0231C10.2373 11.9004 10.3549 11.8031 10.4917 11.7417C10.6184 11.6847 10.7575 11.6603 10.8961 11.6708C11.0347 11.6812 11.1684 11.7262 11.2852 11.8016C11.402 11.8769 11.4981 11.9803 11.5647 12.1023C11.6313 12.2243 11.6664 12.361 11.6667 12.5Z" fill="#DAD7E5"/>
<path id="Vector_12" d="M11.5917 12.8417C11.4377 12.9101 11.2667 12.9303 11.101 12.8995C10.9354 12.8688 10.783 12.7886 10.6639 12.6694C10.5448 12.5503 10.4645 12.3979 10.4338 12.2323C10.4031 12.0667 10.4232 11.8956 10.4917 11.7417C10.6456 11.6732 10.8166 11.6531 10.9823 11.6838C11.1479 11.7145 11.3003 11.7948 11.4194 11.9139C11.5386 12.033 11.6188 12.1854 11.6495 12.3511C11.6803 12.5167 11.6601 12.6877 11.5917 12.8417Z" fill="#EDEBF2"/>
</g>
<defs>
<clipPath id="clip0_637_1603">
<rect width="20" height="20" fill="white"/>
</clipPath>
</defs>
</svg>
