<svg width="26" height="29" viewBox="0 0 26 29" fill="none" xmlns="http://www.w3.org/2000/svg">
<path id="Shape" fill-rule="evenodd" clip-rule="evenodd" d="M1 12.2752C1 11.3775 1.40206 10.5269 2.09578 9.95704L11.0958 2.56418C12.2025 1.65509 13.7975 1.65508 14.9042 2.56418L23.9042 9.95704C24.5979 10.5269 25 11.3775 25 12.2752V25.2857C25 26.3903 24.1046 27.2857 23 27.2857H17.8182C17.2659 27.2857 16.8182 26.838 16.8182 26.2857V21.619C16.8182 20.5145 15.9228 19.619 14.8182 19.619H11.1818C10.0772 19.619 9.18182 20.5145 9.18182 21.619V26.2857C9.18182 26.838 8.7341 27.2857 8.18182 27.2857H3C1.89543 27.2857 1 26.3903 1 25.2857V13V12.2752Z" fill="#000032" stroke="#000032" stroke-width="1.8" stroke-linejoin="round"/>
</svg>
