<svg width="44" height="44" viewBox="0 0 44 44" fill="none" xmlns="http://www.w3.org/2000/svg">
<g clip-path="url(#clip0_1_82)">
<path d="M31.1667 23.8333V25.6666C31.1667 30.745 29.9493 35.6491 27.6558 40.051L27.2397 40.821L24.0368 39.0353C26.1635 35.222 27.3552 30.9503 27.4872 26.5026L27.5 25.6666V23.8333H31.1667ZM20.1667 18.3333H23.8333V25.6666L23.8242 26.3615C23.6856 31.3806 21.9582 36.2263 18.8907 40.2013L18.4672 40.733L15.6255 38.4156C18.4239 34.9981 20.0163 30.7525 20.1557 26.3376L20.1667 25.6666V18.3333ZM22 11C24.4311 11 26.7627 11.9657 28.4818 13.6848C30.2009 15.4039 31.1667 17.7355 31.1667 20.1666H27.5C27.5 18.708 26.9205 17.309 25.8891 16.2776C24.8576 15.2461 23.4587 14.6666 22 14.6666C20.5413 14.6666 19.1423 15.2461 18.1109 16.2776C17.0794 17.309 16.5 18.708 16.5 20.1666V25.6666C16.5 29.7641 14.9967 33.6306 12.3365 36.6245L11.9478 37.0461L9.29315 34.5161C11.4381 32.272 12.6926 29.3237 12.8223 26.2221L12.8333 25.6666V20.1666C12.8333 17.7355 13.7991 15.4039 15.5182 13.6848C17.2373 11.9657 19.5688 11 22 11V11ZM22 3.66664C26.3761 3.66664 30.5729 5.40503 33.6672 8.49938C36.7616 11.5937 38.5 15.7906 38.5 20.1666V25.6666C38.5 28.7796 38.1297 31.845 37.4055 34.815L37.1507 35.8031L33.6123 34.8388C34.331 32.2043 34.7362 29.4818 34.8187 26.708L34.8333 25.6666V20.1666C34.8333 17.7849 34.1705 15.4501 32.9191 13.4237C31.6677 11.3972 29.877 9.75892 27.7474 8.69225C25.6179 7.62558 23.2335 7.17257 20.8612 7.38392C18.4888 7.59528 16.2221 8.46265 14.3147 9.88898L11.7022 7.27464C14.6235 4.93399 18.2566 3.66109 22 3.66664V3.66664ZM9.10799 9.86881L11.7223 12.4813C10.1499 14.5772 9.26026 17.1061 9.17399 19.7248L9.16665 20.1666L9.17399 23.8333C9.17399 25.8866 8.68999 27.8721 7.77699 29.6578L7.49099 30.1895L4.30649 28.3708C5.00315 27.1516 5.41015 25.7913 5.49082 24.3686L5.50732 23.8333V20.1666C5.49645 16.4236 6.76709 12.7896 9.10799 9.86881V9.86881Z" fill="#FB6039"/>
</g>
<defs>
<clipPath id="clip0_1_82">
<rect width="44" height="44" fill="white"/>
</clipPath>
</defs>
</svg>
