<svg width="28" height="31" viewBox="0 0 28 31" fill="none" xmlns="http://www.w3.org/2000/svg">
<g id="Icons/Bottom Nav Bar/Inactive/invest">
<g id="Group">
<g id="Group_2">
<path id="Vector" d="M11.9258 5C5.62561 5 0.5 10.1256 0.5 16.4258C0.5 17.124 0.5 22.525 0.5 22.6211C0.5 23.8811 1.52512 24.9062 2.78516 24.9062H3.67789C3.99233 25.7928 4.839 26.4297 5.83203 26.4297C7.09207 26.4297 8.11719 25.4046 8.11719 24.1445V17.9492C8.11719 16.6892 7.09207 15.6641 5.83203 15.6641C4.839 15.6641 3.99233 16.301 3.67789 17.1875H2.78516C2.5181 17.1875 2.26186 17.234 2.02344 17.3185V16.4258C2.02344 10.9656 6.46563 6.52344 11.9258 6.52344C17.3859 6.52344 21.8281 10.9656 21.8281 16.4258V17.3185C21.5897 17.234 21.3335 17.1875 21.0664 17.1875H20.1737C19.8592 16.301 19.0126 15.6641 18.0195 15.6641C16.7595 15.6641 15.7344 16.6892 15.7344 17.9492V24.1445C15.7344 25.4046 16.7595 26.4297 18.0195 26.4297C18.2501 26.4297 18.4728 26.3951 18.6828 26.3312C18.3979 27.2687 17.5255 27.9531 16.4961 27.9531H14.0799C13.7655 27.0666 12.9188 26.4297 11.9258 26.4297C10.6657 26.4297 9.64062 27.4548 9.64062 28.7148C9.64062 29.9749 10.6657 31 11.9258 31C12.9188 31 13.7655 30.3631 14.0799 29.4766H16.4961C18.5962 29.4766 20.3047 27.768 20.3047 25.668V24.9062H21.0664C22.3264 24.9062 23.3516 23.8811 23.3516 22.6211C23.3516 22.5264 23.3516 17.1234 23.3516 16.4258C23.3516 10.1256 18.226 5 11.9258 5ZM5.07031 17.9492C5.07031 17.5292 5.41202 17.1875 5.83203 17.1875C6.25204 17.1875 6.59375 17.5292 6.59375 17.9492V24.1445C6.59375 24.5645 6.25204 24.9062 5.83203 24.9062C5.41202 24.9062 5.07031 24.5645 5.07031 24.1445V17.9492ZM2.78516 18.7109H3.54688V23.3828H2.78516C2.36514 23.3828 2.02344 23.0411 2.02344 22.6211V19.4727C2.02344 19.0526 2.36514 18.7109 2.78516 18.7109ZM11.9258 29.4766C11.5058 29.4766 11.1641 29.1349 11.1641 28.7148C11.1641 28.2948 11.5058 27.9531 11.9258 27.9531C12.3458 27.9531 12.6875 28.2948 12.6875 28.7148C12.6875 29.1349 12.3458 29.4766 11.9258 29.4766ZM18.7812 24.1445C18.7812 24.5645 18.4395 24.9062 18.0195 24.9062C17.5995 24.9062 17.2578 24.5645 17.2578 24.1445V17.9492C17.2578 17.5292 17.5995 17.1875 18.0195 17.1875C18.4395 17.1875 18.7812 17.5292 18.7812 17.9492V24.1445ZM21.8281 22.6211C21.8281 23.0411 21.4864 23.3828 21.0664 23.3828H20.3047V18.7109H21.0664C21.4864 18.7109 21.8281 19.0526 21.8281 19.4727V22.6211Z" fill="#B0B9C1"/>
</g>
</g>
</g>
</svg>
