<svg width="25" height="25" viewBox="0 0 25 25" fill="none" xmlns="http://www.w3.org/2000/svg">
<g id="JAMAICA FLAG 1" clip-path="url(#clip0_486_1541)">
<g id="Group">
<path id="Vector" fill-rule="evenodd" clip-rule="evenodd" d="M25 12.4999C25 11.1712 24.7927 9.89081 24.4086 8.68947L18.0002 12.549L24.4064 16.3174C24.7919 15.114 25 13.8313 25 12.4999ZM0 12.4999C0 13.8287 0.207335 15.1091 0.591419 16.3104L6.99985 12.4509L0.593651 8.6825C0.208138 9.88586 0 11.1686 0 12.4999Z" fill="black"/>
<path id="Vector_2" fill-rule="evenodd" clip-rule="evenodd" d="M3.33044 20.9953C5.61349 23.4584 8.87674 25 12.5 25C16.1234 25 19.3866 23.4584 21.6696 20.9953L12.5 15.7051L3.33044 20.9953ZM3.33044 4.00472C5.61349 1.54162 8.87674 0 12.5 0C16.1234 0 19.3866 1.54162 21.6696 4.00472L12.5 9.29487L3.33044 4.00472Z" fill="#1AAF5D"/>
<path id="Vector_3" fill-rule="evenodd" clip-rule="evenodd" d="M12.5 15.7052L21.6696 20.9953C22.8976 19.6705 23.842 18.0791 24.4063 16.3176L18 12.5491L24.4086 8.68949C23.8445 6.9252 22.8992 5.33134 21.6696 4.00476L12.5 9.29492L3.33041 4.00476C2.10241 5.32961 1.15799 6.92105 0.593662 8.68259L6.99986 12.451L0.591431 16.3105C1.1555 18.0748 2.10079 19.6687 3.33041 20.9953L12.5 15.7052Z" fill="#F2C500"/>
</g>
</g>
<defs>
<clipPath id="clip0_486_1541">
<rect width="25" height="25" fill="white"/>
</clipPath>
</defs>
</svg>
