<svg width="18" height="19" viewBox="0 0 18 19" fill="none" xmlns="http://www.w3.org/2000/svg">
<g id="Business Line Color">
<g id="Donation">
<path id="Path" d="M0.666656 8.16667C0.666656 7.70643 1.03975 7.33333 1.49999 7.33333C1.96023 7.33333 2.33332 7.70643 2.33332 8.16667V17.3333C2.33332 17.7936 1.96023 18.1667 1.49999 18.1667C1.03975 18.1667 0.666656 17.7936 0.666656 17.3333V8.16667Z" fill="#5F38CA"/>
<path id="Path_2" d="M2.02782 11.0892C1.67167 11.3807 1.14664 11.3283 0.855129 10.9721C0.563616 10.616 0.616009 10.091 0.972153 9.79944L2.98407 8.15263C3.69603 7.56987 4.67054 7.42526 5.52105 7.77616L7.71609 8.68195C9.23409 9.34254 9.8343 10.5074 9.20812 11.8668C8.54044 13.3163 6.98759 13.3789 4.91433 12.4C4.49815 12.2035 4.32006 11.7069 4.51656 11.2907C4.71307 10.8745 5.20974 10.6964 5.62592 10.8929C6.97172 11.5283 7.5396 11.5054 7.69433 11.1695C7.89057 10.7435 7.77901 10.527 7.06574 10.2164L4.8854 9.31685C4.60189 9.19988 4.27706 9.24808 4.03974 9.44234L2.02782 11.0892Z" fill="#5F38CA"/>
<path id="Path_3" d="M14.2964 9.92267C15.4282 9.40743 16.4263 9.49823 17.0255 10.36C17.7481 11.3993 17.3562 12.4342 16.4201 13.3094C16.0748 13.6322 14.305 15.0199 10.9918 17.5694C10.3434 18.0684 9.49185 18.2185 8.71187 17.9713L1.56341 14.2129C1.12468 14.0738 0.881745 13.6054 1.0208 13.1667C1.15985 12.728 1.62823 12.485 2.06696 12.6241L9.21542 16.3825C9.47541 16.4649 9.75926 16.4149 9.97541 16.2485C13.19 13.7749 14.9984 12.357 15.2819 12.092C15.6879 11.7123 15.7753 11.4815 15.6571 11.3115C15.6026 11.233 15.4676 11.2207 15.0212 11.423L10.1728 13.9031C9.97679 14.0033 9.74911 14.022 9.53945 13.9549L5.00464 12.5048C4.56627 12.3646 4.32453 11.8956 4.46471 11.4573C4.60489 11.0189 5.07389 10.7772 5.51226 10.9173L9.7198 12.2628L14.2964 9.92267Z" fill="#5F38CA"/>
<path id="Path_4" d="M14.8333 3.16667C15.2936 3.16667 15.6667 2.79357 15.6667 2.33333C15.6667 1.8731 15.2936 1.5 14.8333 1.5H10.6783C9.7578 1.5 9.01161 2.24619 9.01161 3.16667V4C9.01161 4.92047 9.7578 5.66667 10.6783 5.66667H14V6.5H9.83332C9.37309 6.5 8.99999 6.8731 8.99999 7.33333C8.99999 7.79357 9.37309 8.16667 9.83332 8.16667H14C14.9205 8.16667 15.6667 7.42047 15.6667 6.5V5.66667C15.6667 4.74619 14.9205 4 14 4H10.6783V3.16667H14.8333Z" fill="#5F38CA"/>
<path id="Path_5" d="M13.1667 8.15937C13.1667 8.61961 12.7936 8.9927 12.3333 8.9927C11.8731 8.9927 11.5 8.61961 11.5 8.15937V7.33333C11.5 6.8731 11.8731 6.5 12.3333 6.5C12.7936 6.5 13.1667 6.8731 13.1667 7.33333V8.15937Z" fill="#5F38CA"/>
<path id="Path_6" d="M13.1667 2.33333C13.1667 2.79357 12.7936 3.16667 12.3333 3.16667C11.8731 3.16667 11.5 2.79357 11.5 2.33333V1.5C11.5 1.03976 11.8731 0.666667 12.3333 0.666667C12.7936 0.666667 13.1667 1.03976 13.1667 1.5V2.33333Z" fill="#5F38CA"/>
</g>
</g>
</svg>
