<svg width="24" height="24" viewBox="0 0 24 24" fill="none" xmlns="http://www.w3.org/2000/svg">
<g id="Icon / Loan">
<g id="Business Line Color">
<g id="Donation">
<path id="Path" d="M2 11C2 10.4477 2.44772 10 3 10C3.55228 10 4 10.4477 4 11V22C4 22.5523 3.55228 23 3 23C2.44772 23 2 22.5523 2 22V11Z" fill="#B0B9C1"/>
<path id="Path_2" d="M3.63343 14.507C3.20606 14.8568 2.57602 14.7939 2.2262 14.3666C1.87639 13.9392 1.93926 13.3091 2.36663 12.9593L4.78094 10.9832C5.63529 10.2838 6.8047 10.1103 7.82531 10.5314L10.4594 11.6183C12.281 12.411 13.0012 13.8089 12.2498 15.4402C11.4486 17.1796 9.58515 17.2547 7.09725 16.0801C6.59783 15.8443 6.38413 15.2482 6.61993 14.7488C6.85573 14.2494 7.45174 14.0357 7.95115 14.2715C9.56611 15.034 10.2476 15.0065 10.4332 14.6034C10.6687 14.0922 10.5349 13.8324 9.67894 13.4597L7.06252 12.3802C6.72232 12.2399 6.33252 12.2977 6.04773 12.5308L3.63343 14.507Z" fill="#B0B9C1"/>
<path id="Path_3" d="M18.3557 13.1072C19.7138 12.4889 20.9115 12.5979 21.6306 13.632C22.4977 14.8791 22.0274 16.121 20.9041 17.1713C20.4898 17.5587 18.3659 19.2239 14.3902 22.2833C13.6121 22.8821 12.5902 23.0622 11.6542 22.7656L3.07607 18.2555C2.5496 18.0886 2.25807 17.5265 2.42493 17.0001C2.59179 16.4736 3.15385 16.1821 3.68033 16.3489L12.2585 20.859C12.5705 20.9579 12.9111 20.8979 13.1705 20.6982C17.028 17.7299 19.198 16.0284 19.5382 15.7104C20.0254 15.2548 20.1304 14.9777 19.9885 14.7738C19.9231 14.6796 19.7611 14.6649 19.2254 14.9076L13.4073 17.8837C13.1721 18.004 12.8989 18.0264 12.6473 17.9459L7.20554 16.2058C6.6795 16.0376 6.38941 15.4748 6.55763 14.9487C6.72584 14.4227 7.28865 14.1326 7.81469 14.3008L12.8637 15.9153L18.3557 13.1072Z" fill="#B0B9C1"/>
<path id="Path_4" d="M19 5C19.5523 5 20 4.55228 20 4C20 3.44772 19.5523 3 19 3H14.0139C12.9094 3 12.0139 3.89543 12.0139 5V6C12.0139 7.10457 12.9094 8 14.0139 8H18V9H13C12.4477 9 12 9.44772 12 10C12 10.5523 12.4477 11 13 11H18C19.1046 11 20 10.1046 20 9V8C20 6.89543 19.1046 6 18 6H14.0139V5H19Z" fill="#B0B9C1"/>
<path id="Path_5" d="M17 10.9912C17 11.5435 16.5523 11.9912 16 11.9912C15.4477 11.9912 15 11.5435 15 10.9912V10C15 9.44772 15.4477 9 16 9C16.5523 9 17 9.44772 17 10V10.9912Z" fill="#B0B9C1"/>
<path id="Path_6" d="M17 4C17 4.55228 16.5523 5 16 5C15.4477 5 15 4.55228 15 4V3C15 2.44772 15.4477 2 16 2C16.5523 2 17 2.44772 17 3V4Z" fill="#B0B9C1"/>
</g>
</g>
</g>
</svg>
