<svg width="20" height="20" viewBox="0 0 20 20" fill="none" xmlns="http://www.w3.org/2000/svg">
<g id="lock">
<g id="Group">
<path id="Vector" d="M14.1667 9.1667H5.83332C4.91285 9.1667 4.16666 9.91289 4.16666 10.8334V15.8334C4.16666 16.7538 4.91285 17.5 5.83332 17.5H14.1667C15.0871 17.5 15.8333 16.7538 15.8333 15.8334V10.8334C15.8333 9.91289 15.0871 9.1667 14.1667 9.1667Z" stroke="#129884" stroke-width="1.5" stroke-linecap="round" stroke-linejoin="round"/>
<path id="Vector_2" d="M9.99999 14.1667C10.4602 14.1667 10.8333 13.7936 10.8333 13.3334C10.8333 12.8731 10.4602 12.5 9.99999 12.5C9.53975 12.5 9.16666 12.8731 9.16666 13.3334C9.16666 13.7936 9.53975 14.1667 9.99999 14.1667Z" stroke="#129884" stroke-width="2" stroke-linecap="round" stroke-linejoin="round"/>
<path id="Vector_3" d="M6.66666 9.1667V5.83336C6.66666 4.94931 7.01785 4.10146 7.64297 3.47634C8.26809 2.85122 9.11593 2.50003 9.99999 2.50003C10.884 2.50003 11.7319 2.85122 12.357 3.47634C12.9821 4.10146 13.3333 4.94931 13.3333 5.83336V9.1667" stroke="#129884" stroke-width="1.5" stroke-linecap="round" stroke-linejoin="round"/>
</g>
</g>
</svg>
