<svg width="11" height="11" viewBox="0 0 11 11" fill="none" xmlns="http://www.w3.org/2000/svg">
<g clip-path="url(#clip0_221_698)">
<path fill-rule="evenodd" clip-rule="evenodd" d="M3.67382 2.93702C3.61705 2.81283 3.56608 2.68866 3.52095 2.56292C3.45319 2.37432 3.41104 2.17728 3.35365 1.9859C3.32924 1.90472 3.26228 1.69399 3.258 1.66224C3.22214 1.38521 3.42703 1.28645 3.4882 1.26222C3.51757 1.24966 3.82179 1.13056 3.98265 1.46025C4.17961 1.86328 4.32094 2.28433 4.40395 2.71163C4.56804 3.04985 4.7804 3.37355 5.02131 3.65359C5.97978 4.76731 7.18657 4.57709 8.45486 4.22473C8.64961 4.16941 8.85309 4.27935 8.9154 4.47097C8.97811 4.66406 8.87797 4.87259 8.68801 4.94228C7.99574 5.20139 6.88755 6.10921 6.61059 6.81935C6.55269 6.968 6.57992 7.28181 6.58848 7.59435C6.59981 8.02832 6.59142 8.46287 6.50634 8.66736C6.4938 8.69891 6.32779 9.0316 6.26734 9.09009C6.12171 9.22936 5.97058 9.21189 5.87966 9.18299C5.78875 9.1541 5.67468 9.07972 5.59614 8.9269C5.51404 8.76721 5.45182 8.41109 5.42615 8.33808C5.33296 8.07328 5.13674 7.55728 4.90423 7.13089C4.77897 6.90131 4.65485 6.69179 4.51977 6.60738C4.01972 6.29496 3.41507 6.52276 2.91044 6.7316C2.85234 6.755 2.79462 6.77987 2.73666 6.80323C2.54058 6.92312 2.32702 7.03046 2.09552 7.12225C1.74605 7.26131 1.59784 6.94547 1.58875 6.92441C1.5691 6.87798 1.47754 6.63625 1.72288 6.464C1.74981 6.44582 1.9558 6.33893 2.03504 6.29734C2.14549 6.23955 2.25881 6.18726 2.37298 6.13631C3.5022 5.42336 3.88302 4.16848 3.67382 2.93702ZM4.45256 4.15216C5.17524 4.98917 6.00547 5.26479 6.89836 5.25109L6.89822 5.25113C6.44914 5.66436 6.06567 6.13365 5.90589 6.54455C5.84516 6.70022 5.82757 6.9853 5.82722 7.30023C5.71117 7.03842 5.57538 6.76309 5.43238 6.53513C5.26946 6.27492 5.08935 6.07102 4.92111 5.96573C4.59643 5.76296 4.23955 5.69725 3.87922 5.71392C4.18994 5.24378 4.37828 4.71088 4.45256 4.15216Z" fill="#E5E7EB"/>
</g>
<defs>
<clipPath id="clip0_221_698">
<rect width="8.47256" height="8.47256" fill="white" transform="translate(0 2.19287) rotate(-15)"/>
</clipPath>
</defs>
</svg>
