<svg width="12" height="12" viewBox="0 0 12 12" fill="none" xmlns="http://www.w3.org/2000/svg">
<g clip-path="url(#clip0_221_690)">
<path fill-rule="evenodd" clip-rule="evenodd" d="M4.17482 3.33735C4.11031 3.19622 4.05239 3.05513 4.0011 2.91223C3.9241 2.69791 3.8762 2.474 3.81099 2.25652C3.78325 2.16428 3.70715 1.9248 3.70229 1.88873C3.66155 1.57392 3.89437 1.46169 3.96389 1.43416C3.99726 1.41988 4.34297 1.28455 4.52577 1.65919C4.74959 2.11718 4.91019 2.59566 5.00452 3.08122C5.19098 3.46557 5.4323 3.83342 5.70607 4.15165C6.79525 5.41725 8.16661 5.20109 9.60786 4.80067C9.82917 4.73781 10.0604 4.86274 10.1312 5.0805C10.2025 5.29992 10.0887 5.53688 9.87281 5.61608C9.08613 5.91053 7.82681 6.94214 7.51209 7.74913C7.44629 7.91805 7.47723 8.27465 7.48696 8.62981C7.49984 9.12296 7.4903 9.61677 7.39362 9.84915C7.37937 9.88501 7.19072 10.2631 7.12202 10.3295C6.95653 10.4878 6.78479 10.4679 6.68148 10.4351C6.57817 10.4023 6.44854 10.3178 6.3593 10.1441C6.26599 9.96262 6.19529 9.55793 6.16612 9.47497C6.06022 9.17406 5.83725 8.58769 5.57303 8.10315C5.43068 7.84226 5.28963 7.60417 5.13613 7.50824C4.5679 7.15322 3.88079 7.4121 3.30734 7.64941C3.24131 7.676 3.17573 7.70426 3.10986 7.73081C2.88703 7.86705 2.64435 7.98902 2.38128 8.09333C1.98416 8.25136 1.81573 7.89244 1.8054 7.86851C1.78308 7.81576 1.67903 7.54105 1.95783 7.34531C1.98843 7.32466 2.22251 7.20319 2.31255 7.15592C2.43806 7.09026 2.56685 7.03084 2.69658 6.97294C3.9798 6.16276 4.41256 4.73675 4.17482 3.33735ZM5.05975 4.71821C5.88099 5.66936 6.82444 5.98257 7.8391 5.967L7.83894 5.96704C7.32862 6.43663 6.89285 6.96991 6.71128 7.43685C6.64227 7.61375 6.62228 7.93771 6.62188 8.29558C6.49001 7.99807 6.3357 7.6852 6.1732 7.42615C5.98806 7.13045 5.78339 6.89874 5.59221 6.7791C5.22325 6.54867 4.8177 6.474 4.40823 6.49294C4.76133 5.95869 4.97535 5.35312 5.05975 4.71821Z" fill="#4ADE80"/>
</g>
<defs>
<clipPath id="clip0_221_690">
<rect width="9.62799" height="9.62799" fill="white" transform="translate(0 2.4917) rotate(-15)"/>
</clipPath>
</defs>
</svg>
