<svg width="15" height="14" viewBox="0 0 15 14" fill="none" xmlns="http://www.w3.org/2000/svg">
<g clip-path="url(#clip0_221_682)">
<path fill-rule="evenodd" clip-rule="evenodd" d="M5.77924 3.97572C5.70514 3.81362 5.63861 3.65155 5.57971 3.48743C5.49126 3.24126 5.43625 2.98407 5.36135 2.73428C5.32948 2.62833 5.24208 2.35326 5.2365 2.31182C5.1897 1.95023 5.45712 1.82133 5.53696 1.78971C5.5753 1.7733 5.97238 1.61786 6.18234 2.04818C6.43942 2.57423 6.62389 3.12381 6.73224 3.68153C6.94641 4.12299 7.22359 4.5455 7.53804 4.91102C8.78908 6.36469 10.3642 6.11641 12.0197 5.65649C12.2738 5.58429 12.5394 5.72778 12.6208 5.9779C12.7026 6.22993 12.5719 6.5021 12.324 6.59307C11.4204 6.93128 9.97393 8.11619 9.61244 9.0431C9.53686 9.23713 9.5724 9.64672 9.58357 10.0547C9.59837 10.6211 9.58741 11.1883 9.47636 11.4552C9.46 11.4964 9.24331 11.9306 9.16441 12.007C8.97432 12.1887 8.77707 12.1659 8.6584 12.1282C8.53974 12.0905 8.39085 11.9934 8.28834 11.794C8.18117 11.5855 8.09996 11.1207 8.06646 11.0254C7.94481 10.6798 7.68871 10.0063 7.38523 9.44973C7.22173 9.15008 7.05972 8.8766 6.88341 8.76642C6.23073 8.35864 5.44152 8.65598 4.78285 8.92856C4.70701 8.95911 4.63168 8.99156 4.55603 9.02206C4.30008 9.17855 4.02134 9.31865 3.71918 9.43846C3.26304 9.61997 3.06958 9.20771 3.05772 9.18023C3.03208 9.11963 2.91257 8.80411 3.2328 8.57928C3.26794 8.55555 3.53682 8.41603 3.64024 8.36175C3.7844 8.28632 3.93232 8.21807 4.08133 8.15157C5.55524 7.22099 6.05231 5.58308 5.77924 3.97572ZM6.79568 5.56178C7.73895 6.65427 8.82261 7.01403 9.98805 6.99614L9.98786 6.99619C9.40171 7.53557 8.90118 8.14809 8.69263 8.68442C8.61337 8.88761 8.59041 9.2597 8.58995 9.67076C8.43848 9.32903 8.26123 8.96967 8.07458 8.67213C7.86193 8.33249 7.62685 8.06635 7.40726 7.92892C6.98347 7.66425 6.51766 7.57849 6.04734 7.60024C6.4529 6.9866 6.69873 6.29104 6.79568 5.56178Z" fill="#AB92F0"/>
</g>
<defs>
<clipPath id="clip0_221_682">
<rect width="11.0587" height="11.0587" fill="white" transform="translate(0.984009 3.00439) rotate(-15)"/>
</clipPath>
</defs>
</svg>
