<svg width="28" height="29" viewBox="0 0 28 29" fill="none" xmlns="http://www.w3.org/2000/svg">
<g clip-path="url(#clip0_221_678)">
<path fill-rule="evenodd" clip-rule="evenodd" d="M9.84604 8.61062C9.69679 8.28413 9.5628 7.95772 9.44417 7.62715C9.26602 7.13135 9.15523 6.61334 9.00436 6.11023C8.94018 5.89684 8.76414 5.34283 8.7529 5.25937C8.65864 4.53109 9.19725 4.27146 9.35807 4.20778C9.43528 4.17474 10.235 3.86166 10.6579 4.72836C11.1757 5.78787 11.5473 6.89479 11.7655 8.01809C12.1968 8.90723 12.7551 9.75822 13.3884 10.4944C15.9081 13.4222 19.0807 12.9222 22.4148 11.9959C22.9268 11.8504 23.4618 12.1394 23.6256 12.6432C23.7904 13.1508 23.5272 13.699 23.0278 13.8822C21.2079 14.5634 18.2946 16.9499 17.5665 18.8168C17.4142 19.2076 17.4858 20.0326 17.5083 20.8542C17.5381 21.995 17.5161 23.1374 17.2924 23.675C17.2595 23.758 16.823 24.6326 16.6641 24.7863C16.2813 25.1525 15.884 25.1065 15.645 25.0306C15.4059 24.9546 15.1061 24.7591 14.8996 24.3573C14.6838 23.9375 14.5202 23.0013 14.4527 22.8094C14.2077 22.1133 13.6919 20.7568 13.0807 19.6358C12.7514 19.0323 12.425 18.4815 12.0699 18.2596C10.7554 17.4383 9.16583 18.0371 7.83921 18.5861C7.68646 18.6476 7.53474 18.713 7.38237 18.7744C6.86688 19.0896 6.30546 19.3718 5.69687 19.6131C4.77817 19.9787 4.38852 19.1484 4.36463 19.093C4.31299 18.971 4.07228 18.3355 4.71725 17.8826C4.78804 17.8348 5.32958 17.5538 5.53787 17.4445C5.82823 17.2926 6.12616 17.1551 6.42627 17.0212C9.39487 15.1469 10.396 11.848 9.84604 8.61062ZM11.8932 11.8051C13.7931 14.0055 15.9757 14.7301 18.323 14.694L18.3226 14.6942C17.142 15.7805 16.1339 17.0142 15.7139 18.0944C15.5543 18.5036 15.508 19.2531 15.5071 20.081C15.202 19.3927 14.845 18.6689 14.4691 18.0696C14.0408 17.3856 13.5673 16.8495 13.125 16.5728C12.2715 16.0397 11.3333 15.8669 10.386 15.9108C11.2029 14.6748 11.698 13.2739 11.8932 11.8051Z" fill="#FFB9AA"/>
</g>
<defs>
<clipPath id="clip0_221_678">
<rect width="22.2734" height="22.2734" fill="white" transform="translate(0.188049 6.6543) rotate(-15)"/>
</clipPath>
</defs>
</svg>
