<svg width="12" height="12" viewBox="0 0 12 12" fill="none" xmlns="http://www.w3.org/2000/svg">
<g clip-path="url(#clip0_221_694)">
<path fill-rule="evenodd" clip-rule="evenodd" d="M4.17476 3.33735C4.11024 3.19622 4.05232 3.05513 4.00104 2.91223C3.92404 2.69791 3.87614 2.474 3.81093 2.25652C3.78319 2.16428 3.70709 1.9248 3.70223 1.88873C3.66149 1.57392 3.89431 1.46169 3.96383 1.43416C3.9972 1.41988 4.34291 1.28455 4.52571 1.65919C4.74953 2.11718 4.91013 2.59566 5.00446 3.08122C5.19092 3.46557 5.43224 3.83342 5.70601 4.15165C6.79519 5.41725 8.16655 5.20109 9.6078 4.80067C9.82911 4.73781 10.0603 4.86274 10.1312 5.0805C10.2024 5.29992 10.0886 5.53688 9.87275 5.61608C9.08607 5.91053 7.82675 6.94214 7.51203 7.74913C7.44622 7.91805 7.47717 8.27465 7.4869 8.62981C7.49978 9.12296 7.49024 9.61677 7.39355 9.84915C7.37931 9.88501 7.19066 10.2631 7.12196 10.3295C6.95647 10.4878 6.78473 10.4679 6.68142 10.4351C6.57811 10.4023 6.44848 10.3178 6.35923 10.1441C6.26593 9.96262 6.19523 9.55793 6.16606 9.47497C6.06016 9.17406 5.83719 8.58769 5.57297 8.10315C5.43062 7.84226 5.28957 7.60417 5.13607 7.50824C4.56783 7.15322 3.88073 7.4121 3.30728 7.64941C3.24125 7.676 3.17566 7.70426 3.1098 7.73081C2.88697 7.86705 2.64429 7.98902 2.38122 8.09333C1.9841 8.25136 1.81567 7.89244 1.80534 7.86851C1.78302 7.81576 1.67897 7.54105 1.95777 7.34531C1.98836 7.32466 2.22245 7.20319 2.31249 7.15592C2.438 7.09026 2.56679 7.03084 2.69652 6.97294C3.97973 6.16276 4.41249 4.73675 4.17476 3.33735ZM5.05969 4.71821C5.88093 5.66936 6.82438 5.98257 7.83904 5.967L7.83888 5.96704C7.32856 6.43663 6.89279 6.96991 6.71122 7.43685C6.64221 7.61375 6.62222 7.93771 6.62182 8.29558C6.48995 7.99807 6.33564 7.6852 6.17314 7.42615C5.988 7.13045 5.78333 6.89874 5.59215 6.7791C5.22319 6.54867 4.81764 6.474 4.40817 6.49294C4.76126 5.95869 4.97529 5.35312 5.05969 4.71821Z" fill="#E5E7EB"/>
</g>
<defs>
<clipPath id="clip0_221_694">
<rect width="9.62799" height="9.62799" fill="white" transform="translate(0 2.4917) rotate(-15)"/>
</clipPath>
</defs>
</svg>
