<svg width="20" height="20" viewBox="0 0 20 20" fill="none" xmlns="http://www.w3.org/2000/svg">
<g id="Icon / Money">
<g id="Business Line Color">
<g id="Pouch">
<path id="Path" d="M3.84751 17.5002C4.30774 17.5002 4.68084 17.8733 4.68084 18.3336C4.68084 18.7938 4.30774 19.1669 3.84751 19.1669H3.33331C1.9526 19.1669 0.833313 18.0476 0.833313 16.6669C0.833313 16.5023 0.849575 16.3381 0.881861 16.1766L1.83915 11.3902C2.58224 7.67471 5.84457 5.00024 9.63364 5.00024C13.4227 5.00024 16.685 7.67471 17.4281 11.3902L18.3854 16.1766C18.6562 17.5305 17.7782 18.8476 16.4243 19.1184C16.2628 19.1507 16.0986 19.1669 15.934 19.1669H3.33331C2.87308 19.1669 2.49998 18.7938 2.49998 18.3336C2.49998 17.8733 2.87308 17.5002 3.33331 17.5002H15.934C15.9888 17.5002 16.0436 17.4948 16.0974 17.4841C16.5487 17.3938 16.8414 16.9548 16.7511 16.5035L15.7938 11.7171C15.2065 8.78061 12.6282 6.66691 9.63364 6.66691C6.63904 6.66691 4.06074 8.78061 3.47345 11.7171L2.51616 16.5035C2.5054 16.5573 2.49998 16.612 2.49998 16.6669C2.49998 17.1271 2.87308 17.5002 3.33331 17.5002H3.84751Z" fill="white"/>
<path id="Path_2" d="M12.0946 10.8335C12.5548 10.8335 12.9279 10.4604 12.9279 10.0002C12.9279 9.53997 12.5548 9.16687 12.0946 9.16687H7.9786C7.05812 9.16687 6.31193 9.91306 6.31193 10.8335V11.6669C6.31193 12.5873 7.05812 13.3335 7.9786 13.3335H11.3003V14.1669H7.13365C6.67341 14.1669 6.30031 14.54 6.30031 15.0002C6.30031 15.4604 6.67341 15.8335 7.13365 15.8335H11.3003C12.2208 15.8335 12.967 15.0873 12.967 14.1669V13.3335C12.967 12.4131 12.2208 11.6669 11.3003 11.6669H7.9786V10.8335H12.0946Z" fill="white"/>
<path id="Path_3" d="M10.467 15.8262C10.467 16.2865 10.0939 16.6596 9.63363 16.6596C9.17339 16.6596 8.80029 16.2865 8.80029 15.8262V15.0002C8.80029 14.54 9.17339 14.1669 9.63363 14.1669C10.0939 14.1669 10.467 14.54 10.467 15.0002V15.8262Z" fill="white"/>
<path id="Path_4" d="M10.467 10.0003C10.467 10.4605 10.0939 10.8336 9.63363 10.8336C9.17339 10.8336 8.80029 10.4605 8.80029 10.0003V9.16695C8.80029 8.70671 9.17339 8.33362 9.63363 8.33362C10.0939 8.33362 10.467 8.70671 10.467 9.16695V10.0003Z" fill="white"/>
<path id="Path_5" d="M12.3582 3.02979L11.3599 5.52553C11.189 5.95285 11.3969 6.43783 11.8242 6.60875C12.2515 6.77968 12.7365 6.57184 12.9074 6.14452L14.5741 1.97785C14.8377 1.31868 14.2091 0.652781 13.5358 0.878111L11.3728 1.60208L10.0045 0.922098C9.7698 0.805443 9.49385 0.806032 9.25962 0.923687L7.90944 1.60188L5.7298 0.877548C5.05687 0.653922 4.42991 1.31946 4.69327 1.97785L6.35994 6.14452C6.53086 6.57184 7.01584 6.77968 7.44316 6.60875C7.87048 6.43783 8.07832 5.95285 7.9074 5.52553L6.90723 3.02512L7.71183 3.2925C7.92182 3.36228 8.15094 3.34568 8.34868 3.24636L9.63565 2.59991L10.9396 3.24795C11.1372 3.34616 11.3657 3.36197 11.575 3.29194L12.3582 3.02979Z" fill="white"/>
</g>
</g>
</g>
</svg>
