<svg width="250" height="250" viewBox="0 0 250 250" fill="none" xmlns="http://www.w3.org/2000/svg">
<g id="Frame" clip-path="url(#clip0_169_967)">
<path id="Vector" d="M200.034 146.126C198.699 148.648 196.992 150.955 194.97 152.969L191.58 156.365L188.973 158.967L186.351 161.584L150.641 197.294L134.37 213.579C123.192 224.752 105.063 224.752 93.8896 213.579L53.6005 173.28L41.9042 161.584L39.2874 158.967L33.2899 152.969C24.607 144.286 22.6699 131.421 27.4736 120.871C28.8927 117.753 30.8631 114.918 33.2899 112.501L49.5702 96.2258L57.0739 88.7221L90.5003 55.2862L93.8904 51.8961C96.5483 49.2379 99.7037 47.1292 103.177 45.6906C106.649 44.2519 110.372 43.5115 114.131 43.5115C117.89 43.5115 121.612 44.2519 125.085 45.6906C128.558 47.1292 131.713 49.2379 134.371 51.8961L142.814 60.3447L194.971 112.502C204.075 121.603 205.767 135.315 200.034 146.126Z" fill="#F0F5FD"/>
<path id="Vector_2" opacity="0.42" d="M200.035 146.127C198.699 148.648 196.992 150.954 194.971 152.967L191.582 156.366L188.972 158.967L186.354 161.585L150.643 197.296L134.369 213.578C123.194 224.754 105.066 224.754 93.8896 213.578C198.005 158.066 114.125 43.5117 114.125 43.5117C117.885 43.5064 121.609 44.2442 125.083 45.683C128.557 47.1217 131.713 49.2329 134.368 51.8952L142.813 60.3395L194.97 112.497C204.075 121.6 205.766 135.316 200.035 146.127Z" fill="url(#paint0_linear_169_967)"/>
<path id="Vector_3" d="M54.1172 65.9045H27.562C12.6155 65.9045 -0.129602 53.6787 -0.000864181 38.7339C0.12015 23.5874 12.7348 11.4243 28.0546 12.0422C42.2158 12.6061 53.6563 24.3444 53.882 38.5108C53.9934 44.4212 52.1493 50.203 48.6364 54.9575L54.1172 65.9045Z" fill="#FB6039"/>
<path id="Vector_4" d="M54.1172 65.9045H27.562C12.6155 65.9045 -0.129602 53.6787 -0.000864181 38.7339C0.12015 23.5874 12.7348 11.4243 28.0546 12.0422C-4.2475 43.6843 54.1172 65.9045 54.1172 65.9045Z" fill="url(#paint1_linear_169_967)"/>
<path id="Vector_5" d="M37.6516 48.4287H31.7477C31.7477 49.6633 31.2572 50.8474 30.3842 51.7204C29.5112 52.5934 28.3271 53.0838 27.0925 53.0838C25.8579 53.0838 24.6738 52.5934 23.8008 51.7204C22.9278 50.8474 22.4373 49.6633 22.4373 48.4287H16.4647C16.3524 48.4287 16.2421 48.3986 16.1454 48.3415C16.0487 48.2844 15.9691 48.2024 15.9149 48.104C15.8607 48.0056 15.8339 47.8945 15.8373 47.7822C15.8407 47.6699 15.8743 47.5606 15.9343 47.4657L18.6601 43.1538V35.0356C18.6601 32.8504 19.5282 30.7548 21.0734 29.2096C22.6185 27.6644 24.7142 26.7964 26.8994 26.7964C29.0846 26.7964 31.1802 27.6644 32.7254 29.2096C34.2706 30.7548 35.1386 32.8504 35.1386 35.0356V43.1384L38.1605 47.44C38.2265 47.5337 38.2656 47.6436 38.2735 47.7579C38.2815 47.8723 38.2579 47.9866 38.2055 48.0884C38.153 48.1903 38.0737 48.2759 37.976 48.3359C37.8784 48.3959 37.7662 48.428 37.6516 48.4287Z" fill="white"/>
<path id="Vector_6" opacity="0.77" d="M155.959 97.4857V123.96C155.959 126.284 155.036 128.513 153.393 130.156C151.75 131.8 149.521 132.723 147.197 132.724H36.2398C35.0885 132.724 33.9485 132.498 32.8848 132.057C31.8212 131.617 30.8547 130.971 30.0406 130.157C29.2266 129.343 28.5809 128.376 28.1404 127.313C27.6999 126.249 27.4733 125.109 27.4736 123.958V120.868C28.8927 117.751 30.8631 114.915 33.29 112.498L49.5702 96.2232L57.0739 88.7195H147.197C149.522 88.7208 151.75 89.645 153.393 91.2889C155.036 92.9327 155.959 95.1616 155.959 97.4857Z" fill="url(#paint2_linear_169_967)"/>
<path id="Vector_7" opacity="0.77" d="M42.7084 112.684V142.924C42.7084 148.015 46.8349 152.141 51.9252 152.141H161.978C167.069 152.141 171.195 148.015 171.195 142.924V112.684C171.195 107.593 167.069 103.467 161.978 103.467H51.9252C46.8349 103.467 42.7084 107.593 42.7084 112.684Z" fill="url(#paint3_linear_169_967)"/>
<path id="Vector_8" d="M18.8421 106.118L18.8421 132.594C18.8421 137.434 22.7657 141.358 27.6057 141.358H138.565C143.405 141.358 147.329 137.434 147.329 132.594V106.118C147.329 101.278 143.405 97.3544 138.565 97.3544H27.6057C22.7657 97.3544 18.8421 101.278 18.8421 106.118Z" fill="url(#paint4_linear_169_967)"/>
<path id="Vector_9" d="M34.077 121.316V151.557C34.077 156.647 38.2035 160.773 43.2938 160.773H153.347C158.437 160.773 162.564 156.647 162.564 151.557V121.316C162.564 116.226 158.437 112.099 153.347 112.099H43.2938C38.2035 112.099 34.077 116.226 34.077 121.316Z" fill="url(#paint5_linear_169_967)"/>
<path id="Vector_10" d="M130.532 130.848V144.729C130.532 145.84 131.432 146.74 132.543 146.74H146.424C147.535 146.74 148.435 145.84 148.435 144.729V130.848C148.435 129.737 147.535 128.837 146.424 128.837H132.543C131.432 128.837 130.532 129.737 130.532 130.848Z" fill="white"/>
<path id="Vector_11" d="M70.3339 138.903C70.3331 141.96 69.1842 144.905 67.1147 147.155C65.0453 149.405 62.2063 150.796 59.16 151.052C56.1138 151.308 53.0825 150.411 50.6666 148.537C48.2507 146.664 46.6265 143.952 46.1156 140.938C45.6047 137.924 46.2444 134.828 47.908 132.263C49.5717 129.699 52.1378 127.852 55.0983 127.09C58.0587 126.328 61.1974 126.705 63.8928 128.148C66.5881 129.59 68.6434 131.992 69.6516 134.878C70.1036 136.172 70.3343 137.533 70.3339 138.903ZM51.9587 125.514C49.1694 126.626 46.8861 128.725 45.5433 131.411C45.4782 131.542 45.3762 131.652 45.2498 131.726C45.1234 131.801 44.978 131.837 44.8315 131.83C44.6849 131.823 44.5436 131.773 44.4247 131.687C44.3059 131.601 44.2147 131.482 44.1623 131.345C43.7605 130.273 43.6883 129.104 43.9551 127.99C44.2218 126.876 44.8152 125.867 45.6593 125.092C46.5034 124.317 47.5596 123.813 48.6925 123.642C49.8254 123.472 50.9834 123.644 52.0179 124.136C52.6101 124.418 52.5655 125.273 51.9587 125.514ZM70.7579 131.467C69.4197 128.754 67.1233 126.633 64.3124 125.514C64.1774 125.46 64.0607 125.369 63.9763 125.251C63.892 125.132 63.8436 124.992 63.8369 124.847C63.8303 124.702 63.8658 124.558 63.939 124.433C64.0123 124.307 64.1202 124.206 64.2498 124.14C65.2915 123.628 66.464 123.442 67.613 123.608C68.7621 123.775 69.8339 124.285 70.6875 125.072C71.541 125.859 72.1364 126.886 72.3951 128.018C72.6539 129.15 72.5639 130.333 72.1371 131.413C72.0831 131.549 71.9908 131.666 71.8715 131.75C71.7522 131.835 71.6111 131.883 71.4651 131.888C71.3191 131.894 71.1746 131.857 71.0491 131.783C70.9236 131.708 70.8224 131.598 70.7579 131.467Z" fill="white"/>
<path id="Vector_12" d="M70.7434 153.484C70.3435 153.883 69.8013 154.108 69.2359 154.108C68.6705 154.108 68.1282 153.883 67.7284 153.484L65.4829 151.238L66.25 150.471C66.8456 149.876 67.6533 149.541 68.4955 149.541C69.3377 149.541 70.1454 149.876 70.7409 150.471C71.1407 150.871 71.3654 151.413 71.3654 151.979C71.3654 152.544 71.1407 153.086 70.7409 153.486L70.7434 153.484Z" fill="white"/>
<path id="Vector_13" d="M49.9854 150.469L50.7525 151.237L48.5071 153.482C48.3091 153.68 48.0741 153.837 47.8154 153.944C47.5568 154.051 47.2796 154.106 46.9996 154.106C46.7196 154.106 46.4424 154.051 46.1837 153.944C45.9251 153.837 45.6901 153.68 45.4921 153.482C45.2942 153.284 45.1371 153.049 45.03 152.79C44.9228 152.532 44.8677 152.254 44.8677 151.974C44.8677 151.695 44.9228 151.417 45.03 151.159C45.1371 150.9 45.2941 150.665 45.4921 150.467C45.7872 150.172 46.1375 149.938 46.5231 149.778C46.9087 149.619 47.322 149.537 47.7393 149.537C48.1566 149.537 48.5698 149.62 48.9552 149.78C49.3406 149.94 49.6907 150.174 49.9854 150.469Z" fill="white"/>
<path id="Vector_14" d="M115.279 130.193H79.7284C78.349 130.193 77.2308 131.311 77.2308 132.69V135.98C77.2308 137.359 78.349 138.478 79.7284 138.478H115.279C116.658 138.478 117.776 137.359 117.776 135.98V132.69C117.776 131.311 116.658 130.193 115.279 130.193Z" fill="white"/>
<path id="Vector_15" d="M136.5 136.915C138.014 135.726 139.516 135.963 140.594 136.553C141.672 137.144 144.721 141.825 144.683 142.798C144.645 143.771 141.105 146.746 140.029 146.627C138.594 146.471 135.814 142.357 135.223 141.084C134.632 139.811 134.745 138.293 136.5 136.915Z" fill="url(#paint6_linear_169_967)"/>
<path id="Vector_16" d="M250 218.721L233.358 228.605L233.349 228.61L222.284 235.184L222.278 235.189L217.578 237.983C217.578 237.983 204.644 227.808 200.916 226.438C197.189 225.069 191.543 222.691 189.005 221.727C185.542 220.44 171.561 211.406 170.582 210.408C166.625 206.358 161.601 202.278 157.794 199.455C157.765 199.437 157.736 199.418 157.709 199.396C155.257 197.586 153.32 196.307 152.508 195.899C152.062 195.688 151.603 195.503 151.135 195.346C147.662 194.221 143.411 194.52 142.746 192.772C142.723 192.703 142.704 192.633 142.692 192.561C142.257 190.355 147.711 184.426 154.569 186.182C155.865 186.515 157.298 187.062 158.774 187.737L158.78 187.742H158.789C164.781 190.489 171.44 195.305 172.129 195.81L172.187 195.854C172.187 195.854 169.179 190.042 166.684 186.584C164.189 183.151 152.351 167.653 149.964 164.37C147.576 161.087 138.077 147.845 136.966 145.6C135.856 143.355 133.087 139.544 136.511 136.917C139.677 134.471 143.527 136.995 146.187 140.35C148.848 143.705 157.497 154.463 160.873 158.533C163.152 161.302 166.87 165.254 169.58 168.224C169.58 165.709 169.33 163.351 172.178 161.556C173.914 160.465 175.577 160.514 177.006 161.041H177.012C179.633 162.01 181.458 164.583 181.458 164.583C181.458 164.583 180.085 160.366 184.368 158.248C188.536 156.184 191.799 161.517 191.955 161.767C191.901 161.571 190.948 158.103 193.457 156.606C197.278 154.312 203.436 163.392 203.436 163.392C205.647 166.082 209.84 172.07 211.258 174.222C213.49 177.592 221.233 196.274 223.136 198.73C225.039 201.187 250 218.721 250 218.721Z" fill="#C5998D"/>
<path id="Vector_17" d="M151.738 192.896C151.974 193.14 151.67 195.127 151.39 195.332C151.304 195.353 151.215 195.358 151.127 195.347C147.656 194.222 143.402 194.519 142.737 192.767C143.131 192.361 143.813 191.896 144.703 191.579C146.276 191.029 151.517 192.656 151.738 192.896Z" fill="url(#paint7_linear_169_967)"/>
<path id="Vector_18" opacity="0.2" d="M233.358 228.605L233.349 228.61L222.284 235.184L222.278 235.189L217.578 237.983C217.578 237.983 204.644 227.808 200.916 226.438C197.189 225.069 191.543 222.691 189.005 221.727C185.542 220.44 171.561 211.406 170.582 210.408C166.625 206.358 161.601 202.278 157.794 199.455C157.765 199.437 157.736 199.418 157.709 199.396C155.257 197.586 153.32 196.307 152.508 195.899C152.062 195.688 151.603 195.503 151.135 195.346C147.662 194.221 143.411 194.52 142.746 192.772C142.723 192.703 142.704 192.633 142.692 192.561C142.257 190.355 147.711 184.426 154.569 186.182C155.865 186.515 157.298 187.062 158.774 187.737L158.78 187.742H158.789C164.781 190.489 171.44 195.305 172.129 195.81L172.187 195.854C172.187 195.854 169.179 190.042 166.684 186.584C164.189 183.151 152.351 167.653 149.964 164.37C147.576 161.087 138.077 147.845 136.966 145.6C135.856 143.355 133.087 139.544 136.511 136.917C139.677 134.471 143.527 136.995 146.187 140.35C148.848 143.705 157.497 154.463 160.873 158.533C163.152 161.302 166.87 165.254 169.58 168.224C169.58 165.709 169.33 163.351 172.178 161.556C173.914 160.465 175.577 160.514 177.006 161.041H177.012C178.425 167.425 180.294 180.085 187.139 196.923C196.424 219.779 233.358 228.605 233.358 228.605Z" fill="url(#paint8_linear_169_967)"/>
<path id="Vector_19" d="M222.283 235.184L222.278 235.189L217.577 237.983C217.577 237.983 204.643 227.808 200.916 226.438C197.188 225.069 191.543 222.691 189.004 221.727C185.541 220.44 171.56 211.406 170.581 210.408C166.624 206.358 161.6 202.278 157.793 199.455C192.021 222.217 194.849 218.132 202.545 219.066C210.615 220.043 222.283 235.184 222.283 235.184Z" fill="url(#paint9_linear_169_967)"/>
<path id="Vector_20" d="M175.453 206.105C175.208 205.847 171.828 202.211 170.218 198.483C168.565 194.678 159.074 187.952 158.775 187.74H158.785C164.777 190.487 171.435 195.303 172.125 195.808C172.092 200.902 175.255 205.803 175.453 206.105Z" fill="url(#paint10_linear_169_967)"/>
</g>
<defs>
<linearGradient id="paint0_linear_169_967" x1="148.622" y1="64.363" x2="148.622" y2="319.078" gradientUnits="userSpaceOnUse">
<stop stop-color="#D6E6FD"/>
<stop offset="1" stop-color="#291B60"/>
</linearGradient>
<linearGradient id="paint1_linear_169_967" x1="26.8616" y1="52.9389" x2="6.05413" y2="-41.851" gradientUnits="userSpaceOnUse">
<stop stop-color="#F4BACA"/>
<stop offset="1" stop-color="#D0B7AE"/>
</linearGradient>
<linearGradient id="paint2_linear_169_967" x1="-11.6517" y1="110.723" x2="309.433" y2="110.723" gradientUnits="userSpaceOnUse">
<stop stop-color="#D6E6FD"/>
<stop offset="1" stop-color="#291B60"/>
</linearGradient>
<linearGradient id="paint3_linear_169_967" x1="382.496" y1="127.804" x2="-7.86077" y2="127.804" gradientUnits="userSpaceOnUse">
<stop stop-color="#D6E6FD"/>
<stop offset="1" stop-color="#291B60"/>
</linearGradient>
<linearGradient id="paint4_linear_169_967" x1="-20.2831" y1="119.357" x2="300.808" y2="119.357" gradientUnits="userSpaceOnUse">
<stop stop-color="#5C75C9"/>
<stop offset="1" stop-color="#291B60"/>
</linearGradient>
<linearGradient id="paint5_linear_169_967" x1="373.864" y1="136.436" x2="-16.4931" y2="136.436" gradientUnits="userSpaceOnUse">
<stop stop-color="#5C75C9"/>
<stop offset="1" stop-color="#291B60"/>
</linearGradient>
<linearGradient id="paint6_linear_169_967" x1="134.72" y1="140.09" x2="144.738" y2="142.642" gradientUnits="userSpaceOnUse">
<stop stop-color="#F91E5A"/>
<stop offset="1" stop-color="#D0B7AE" stop-opacity="0"/>
</linearGradient>
<linearGradient id="paint7_linear_169_967" x1="49.0087" y1="329.915" x2="26.3699" y2="313.86" gradientUnits="userSpaceOnUse">
<stop stop-color="#F91E5A"/>
<stop offset="1" stop-color="#D0B7AE" stop-opacity="0"/>
</linearGradient>
<linearGradient id="paint8_linear_169_967" x1="204.523" y1="419.244" x2="-105.947" y2="199.064" gradientUnits="userSpaceOnUse">
<stop stop-color="#FFEDF2"/>
<stop offset="1" stop-color="white"/>
</linearGradient>
<linearGradient id="paint9_linear_169_967" x1="24.2754" y1="294.526" x2="120.415" y2="411.225" gradientUnits="userSpaceOnUse">
<stop stop-color="#F91E5A"/>
<stop offset="1" stop-color="#D0B7AE" stop-opacity="0"/>
</linearGradient>
<linearGradient id="paint10_linear_169_967" x1="71.3171" y1="348.508" x2="51.6135" y2="321.312" gradientUnits="userSpaceOnUse">
<stop stop-color="#F91E5A"/>
<stop offset="1" stop-color="#D0B7AE" stop-opacity="0"/>
</linearGradient>
<clipPath id="clip0_169_967">
<rect width="250" height="250" fill="white"/>
</clipPath>
</defs>
</svg>
