<svg width="26" height="26" viewBox="0 0 26 26" fill="none" xmlns="http://www.w3.org/2000/svg">
<g id="ic:baseline-exit-to-app">
<path id="Vector" d="M9.11083 10.9308L7.58333 12.4583L13 17.875L18.4167 12.4583L16.8892 10.9308L14.0833 13.7258L14.0833 3.25L11.9167 3.25L11.9167 13.7258L9.11083 10.9308ZM22.75 20.5833L22.75 5.41667C22.75 4.84203 22.5217 4.29093 22.1154 3.8846C21.7091 3.47827 21.158 3.25 20.5833 3.25L16.25 3.25L16.25 5.41667L20.5833 5.41667L20.5833 20.5833L5.41667 20.5833L5.41667 5.41667L9.75 5.41667L9.75 3.25L5.41667 3.25C4.84203 3.25 4.29093 3.47827 3.8846 3.8846C3.47827 4.29093 3.25 4.84203 3.25 5.41667L3.25 20.5833C3.25 21.775 4.225 22.75 5.41667 22.75L20.5833 22.75C21.775 22.75 22.75 21.775 22.75 20.5833Z" fill="white"/>
</g>
</svg>
