<svg width="19" height="20" viewBox="0 0 19 20" fill="none" xmlns="http://www.w3.org/2000/svg">
<g id="Business Line Color">
<g id="Pouch">
<path id="Path" d="M3.84754 17.5002C4.30777 17.5002 4.68087 17.8733 4.68087 18.3336C4.68087 18.7938 4.30777 19.1669 3.84754 19.1669H3.33334C1.95263 19.1669 0.833344 18.0476 0.833344 16.6669C0.833344 16.5023 0.849605 16.338 0.881892 16.1766L1.83918 11.3902C2.58227 7.67469 5.8446 5.00022 9.63367 5.00022C13.4227 5.00022 16.6851 7.67469 17.4282 11.3902L18.3854 16.1766C18.6562 17.5305 17.7782 18.8476 16.4243 19.1183C16.2629 19.1506 16.0986 19.1669 15.934 19.1669H3.33334C2.87311 19.1669 2.50001 18.7938 2.50001 18.3336C2.50001 17.8733 2.87311 17.5002 3.33334 17.5002H15.934C15.9889 17.5002 16.0436 17.4948 16.0974 17.484C16.5487 17.3938 16.8414 16.9548 16.7511 16.5035L15.7939 11.717C15.2066 8.78059 12.6283 6.66689 9.63367 6.66689C6.63907 6.66689 4.06077 8.78059 3.47348 11.717L2.51619 16.5035C2.50543 16.5573 2.50001 16.612 2.50001 16.6669C2.50001 17.1271 2.87311 17.5002 3.33334 17.5002H3.84754Z" fill="#FB6039"/>
<path id="Path_2" d="M12.0946 10.8336C12.5548 10.8336 12.9279 10.4605 12.9279 10.0002C12.9279 9.53999 12.5548 9.16689 12.0946 9.16689H7.97863C7.05815 9.16689 6.31196 9.91309 6.31196 10.8336V11.6669C6.31196 12.5874 7.05815 13.3336 7.97863 13.3336H11.3003V14.1669H7.13368C6.67344 14.1669 6.30034 14.54 6.30034 15.0002C6.30034 15.4605 6.67344 15.8336 7.13368 15.8336H11.3003C12.2208 15.8336 12.967 15.0874 12.967 14.1669V13.3336C12.967 12.4131 12.2208 11.6669 11.3003 11.6669H7.97863V10.8336H12.0946Z" fill="#FB6039"/>
<path id="Path_3" d="M10.467 15.8263C10.467 16.2865 10.0939 16.6596 9.63366 16.6596C9.17342 16.6596 8.80032 16.2865 8.80032 15.8263V15.0002C8.80032 14.54 9.17342 14.1669 9.63366 14.1669C10.0939 14.1669 10.467 14.54 10.467 15.0002V15.8263Z" fill="#FB6039"/>
<path id="Path_4" d="M10.467 10.0002C10.467 10.4605 10.0939 10.8336 9.63366 10.8336C9.17342 10.8336 8.80032 10.4605 8.80032 10.0002V9.16689C8.80032 8.70665 9.17342 8.33356 9.63366 8.33356C10.0939 8.33356 10.467 8.70665 10.467 9.16689V10.0002Z" fill="#FB6039"/>
<path id="Path_5" d="M12.3582 3.02976L11.3599 5.5255C11.189 5.95282 11.3969 6.4378 11.8242 6.60872C12.2515 6.77965 12.7365 6.57181 12.9074 6.14449L14.5741 1.97782C14.8377 1.31865 14.2091 0.652751 13.5358 0.878081L11.3728 1.60205L10.0045 0.922068C9.7698 0.805412 9.49385 0.806001 9.25962 0.923657L7.90944 1.60185L5.7298 0.877517C5.05687 0.653891 4.42991 1.31943 4.69327 1.97782L6.35994 6.14449C6.53086 6.57181 7.01584 6.77965 7.44316 6.60872C7.87048 6.4378 8.07832 5.95282 7.9074 5.5255L6.90723 3.02509L7.71183 3.29247C7.92182 3.36225 8.15094 3.34565 8.34868 3.24633L9.63565 2.59988L10.9396 3.24792C11.1372 3.34612 11.3657 3.36194 11.575 3.29191L12.3582 3.02976Z" fill="#FB6039"/>
</g>
</g>
</svg>
