<svg width="15" height="16" viewBox="0 0 15 16" fill="none" xmlns="http://www.w3.org/2000/svg">
<path d="M3.07802 14.0002C3.44621 14.0002 3.74469 14.2987 3.74469 14.6668C3.74469 15.035 3.44621 15.3335 3.07802 15.3335H2.66667C1.5621 15.3335 0.666668 14.4381 0.666668 13.3335C0.666668 13.2018 0.679677 13.0704 0.705507 12.9413L1.47133 9.11214C2.06581 6.13975 4.67567 4.00018 7.70693 4.00018C10.7382 4.00018 13.348 6.13975 13.9425 9.11214L14.7084 12.9413C14.925 14.0244 14.2225 15.078 13.1394 15.2947C13.0103 15.3205 12.8789 15.3335 12.7472 15.3335H2.66667C2.29848 15.3335 2 15.035 2 14.6668C2 14.2987 2.29848 14.0002 2.66667 14.0002H12.7472C12.7911 14.0002 12.8349 13.9958 12.8779 13.9872C13.239 13.915 13.4731 13.5638 13.4009 13.2028L12.6351 9.37363C12.1653 7.02447 10.1026 5.33351 7.70693 5.33351C5.31125 5.33351 3.24861 7.02447 2.77877 9.37363L2.01295 13.2028C2.00434 13.2458 2 13.2896 2 13.3335C2 13.7017 2.29848 14.0002 2.66667 14.0002H3.07802Z" fill="white"/>
<path d="M9.67566 8.66684C10.0439 8.66684 10.3423 8.36837 10.3423 8.00018C10.3423 7.63199 10.0439 7.33351 9.67566 7.33351H6.38289C5.64651 7.33351 5.04956 7.93046 5.04956 8.66684V9.33351C5.04956 10.0699 5.64651 10.6668 6.38289 10.6668H9.04026V11.3335H5.70693C5.33874 11.3335 5.04026 11.632 5.04026 12.0002C5.04026 12.3684 5.33874 12.6668 5.70693 12.6668H9.04026C9.77664 12.6668 10.3736 12.0699 10.3736 11.3335V10.6668C10.3736 9.93046 9.77664 9.33351 9.04026 9.33351H6.38289V8.66684H9.67566Z" fill="#2969FF"/>
<path d="M8.3736 12.661C8.3736 13.0292 8.07512 13.3277 7.70693 13.3277C7.33874 13.3277 7.04026 13.0292 7.04026 12.661V12.0002C7.04026 11.632 7.33874 11.3335 7.70693 11.3335C8.07512 11.3335 8.3736 11.632 8.3736 12.0002V12.661Z" fill="#2969FF"/>
<path d="M8.3736 8.00018C8.3736 8.36837 8.07512 8.66684 7.70693 8.66684C7.33874 8.66684 7.04026 8.36837 7.04026 8.00018V7.33351C7.04026 6.96532 7.33874 6.66685 7.70693 6.66685C8.07512 6.66685 8.3736 6.96532 8.3736 7.33351V8.00018Z" fill="#2969FF"/>
<path d="M9.88658 2.4238L9.08795 4.4204C8.9512 4.76225 9.11748 5.15023 9.45934 5.28697C9.80119 5.42372 10.1892 5.25744 10.3259 4.91558L11.6592 1.58225C11.8702 1.05491 11.3673 0.522195 10.8287 0.702459L9.09823 1.28163L8.00362 0.737648C7.81583 0.644324 7.59508 0.644795 7.40769 0.73892L6.32755 1.28148L4.58384 0.702008C4.0455 0.523107 3.54393 1.05554 3.75461 1.58225L5.08795 4.91558C5.22469 5.25744 5.61267 5.42372 5.95452 5.28697C6.29638 5.15023 6.46266 4.76225 6.32591 4.4204L5.52578 2.42006L6.16946 2.63397C6.33745 2.6898 6.52075 2.67652 6.67894 2.59706L7.70852 2.0799L8.75171 2.59833C8.9098 2.67689 9.09259 2.68955 9.25999 2.63352L9.88658 2.4238Z" fill="white"/>
</svg>
