<svg width="393" height="557" viewBox="0 0 393 557" fill="none" xmlns="http://www.w3.org/2000/svg">
<g filter="url(#filter0_d_912_2658)">
<path fill-rule="evenodd" clip-rule="evenodd" d="M59 46.2619C47.9543 46.2619 39 55.2162 39 66.2619V483C39 493.77 47.5137 502.552 58.1784 502.983C58.0612 502.321 58 501.639 58 500.942C58 494.693 62.9249 489.627 69 489.627C75.0751 489.627 80 494.693 80 500.942C80 501.645 79.9378 502.332 79.8186 503H90.1814C90.0622 502.332 90 501.645 90 500.942C90 494.693 94.9249 489.627 101 489.627C107.075 489.627 112 494.693 112 500.942C112 501.645 111.938 502.332 111.819 503H122.181C122.062 502.332 122 501.645 122 500.942C122 494.693 126.925 489.627 133 489.627C139.075 489.627 144 494.693 144 500.942C144 501.645 143.938 502.332 143.819 503H154.181C154.062 502.332 154 501.645 154 500.942C154 494.693 158.925 489.627 165 489.627C171.075 489.627 176 494.693 176 500.942C176 501.645 175.938 502.332 175.819 503H186.181C186.062 502.332 186 501.645 186 500.942C186 494.693 190.925 489.627 197 489.627C203.075 489.627 208 494.693 208 500.942C208 501.645 207.938 502.332 207.819 503H218.181C218.062 502.332 218 501.645 218 500.942C218 494.693 222.925 489.627 229 489.627C235.075 489.627 240 494.693 240 500.942C240 501.645 239.938 502.332 239.819 503H250.181C250.062 502.332 250 501.645 250 500.942C250 494.693 254.925 489.627 261 489.627C267.075 489.627 272 494.693 272 500.942C272 501.645 271.938 502.332 271.819 503H282.181C282.062 502.332 282 501.645 282 500.942C282 494.693 286.925 489.627 293 489.627C299.075 489.627 304 494.693 304 500.942C304 501.645 303.938 502.332 303.819 503H314.181C314.062 502.332 314 501.645 314 500.942C314 494.693 318.925 489.627 325 489.627C331.075 489.627 336 494.693 336 500.942C336 501.616 335.943 502.276 335.833 502.917C346.02 501.991 354 493.427 354 483V66.2619C354 55.2162 345.046 46.2619 334 46.2619H59Z" fill="white"/>
</g>
<defs>
<filter id="filter0_d_912_2658" x="-11" y="0.261902" width="415" height="556.738" filterUnits="userSpaceOnUse" color-interpolation-filters="sRGB">
<feFlood flood-opacity="0" result="BackgroundImageFix"/>
<feColorMatrix in="SourceAlpha" type="matrix" values="0 0 0 0 0 0 0 0 0 0 0 0 0 0 0 0 0 0 127 0" result="hardAlpha"/>
<feOffset dy="4"/>
<feGaussianBlur stdDeviation="25"/>
<feComposite in2="hardAlpha" operator="out"/>
<feColorMatrix type="matrix" values="0 0 0 0 0 0 0 0 0 0 0 0 0 0 0 0 0 0 0.05 0"/>
<feBlend mode="normal" in2="BackgroundImageFix" result="effect1_dropShadow_912_2658"/>
<feBlend mode="normal" in="SourceGraphic" in2="effect1_dropShadow_912_2658" result="shape"/>
</filter>
</defs>
</svg>
