<svg width="250" height="250" viewBox="0 0 250 250" fill="none" xmlns="http://www.w3.org/2000/svg">
<g id="Frame">
<g id="User s profile">
<g id="Group 12903">
<path id="Path 13315" opacity="0.1" d="M125 25.4167C181.422 25.4167 227.161 70.0018 227.161 125C227.161 179.998 181.422 224.583 125 224.583C68.5776 224.583 22.8391 179.998 22.8391 125C22.8391 98.7658 59.676 112.624 76.739 94.7814C95.3347 75.3352 95.4911 25.4167 125 25.4167Z" fill="#F9D1BA"/>
<path id="Path 13317" opacity="0.3" d="M222.159 94.1351C229.824 117.154 228.646 142.203 218.853 164.401C203.236 199.772 167.09 224.583 125 224.583C109.219 224.612 93.6386 221.046 79.441 214.157C75.318 212.151 71.3338 209.873 67.5149 207.336C40.5729 189.454 184.846 74.2681 222.159 94.1351Z" fill="#FB6039"/>
<path id="Path 13316" opacity="0.5" d="M208.976 181.727C190.558 207.61 159.812 224.583 125 224.583C112.304 224.6 99.7108 222.298 87.8411 217.791C87.8411 217.791 106.772 207.762 132.036 202.565C154.83 197.876 182.669 198.971 208.976 181.727Z" fill="#FB6039"/>
<path id="Path 13318" d="M151.746 52.5343C152.321 63.5188 111.139 65.6771 110.563 54.6926C109.987 43.7081 118.74 34.3202 130.112 33.7242C141.484 33.1282 151.17 41.5499 151.746 52.5343Z" fill="white"/>
</g>
<g id="Group 12902">
<path id="Rectangle 2358" opacity="0.2" d="M77.9458 56.1739H181.324C184.043 56.1739 186.651 57.254 188.574 59.1767C190.496 61.0994 191.577 63.7072 191.577 66.4263V195.863C191.577 197.209 191.311 198.542 190.796 199.786C190.281 201.03 189.526 202.16 188.574 203.112C187.622 204.064 186.491 204.82 185.248 205.335C184.004 205.85 182.671 206.115 181.324 206.115H77.9458C75.2267 206.115 72.6189 205.035 70.6962 203.112C68.7735 201.19 67.6934 198.582 67.6934 195.863V66.4263C67.6934 63.7072 68.7735 61.0994 70.6962 59.1767C72.6189 57.254 75.2267 56.1739 77.9458 56.1739Z" fill="black"/>
<path id="Rectangle 2354" d="M68.1206 43.3584H171.499C174.218 43.3584 176.826 44.4385 178.748 46.3612C180.671 48.2839 181.751 50.8917 181.751 53.6108V183.047C181.751 185.766 180.671 188.374 178.748 190.297C176.826 192.22 174.218 193.3 171.499 193.3H68.1206C65.4015 193.3 62.7937 192.22 60.871 190.297C58.9483 188.374 57.8682 185.766 57.8682 183.047V53.6108C57.8682 50.8917 58.9483 48.2839 60.871 46.3612C62.7937 44.4385 65.4015 43.3584 68.1206 43.3584Z" fill="#F6F6F6"/>
<path id="Rectangle 2355" d="M77.0915 56.6011H163.383C165.082 56.6011 166.712 57.2762 167.913 58.4778C169.115 59.6795 169.79 61.3094 169.79 63.0088V145.028C169.79 146.727 169.115 148.357 167.913 149.559C166.712 150.761 165.082 151.436 163.383 151.436H77.0915C75.392 151.436 73.7622 150.761 72.5605 149.559C71.3588 148.357 70.6837 146.727 70.6837 145.028V63.0088C70.6837 61.3094 71.3588 59.6795 72.5605 58.4778C73.7622 57.2762 75.392 56.6011 77.0915 56.6011Z" fill="#FB6039"/>
<g id="Group 12899">
<path id="Path 14637" d="M115.907 125.078C115.907 125.078 96.3485 125.424 93.9323 131.522C91.516 137.62 91.171 140.726 91.171 140.726C91.171 140.726 104.548 151.747 122.811 151.195C141.073 150.644 151.114 140.151 151.114 140.151C151.114 140.151 149.618 127.378 139.723 126.229C129.829 125.081 115.907 125.078 115.907 125.078Z" fill="#291B60"/>
<path id="Path 14634" d="M95.7444 100.662C95.7444 100.662 92.7541 117.365 104.27 132.023C104.419 121.554 118.479 110.785 137.773 121.105C140.017 108.541 143.156 90.2935 138.521 84.0117C133.887 77.7299 118.03 80.4234 109.505 89.0952C100.98 97.7669 95.7444 100.662 95.7444 100.662Z" fill="black"/>
<g id="Group 12897">
<path id="Path 14635" d="M114.742 116.085V125.591C114.742 125.591 116.237 128.581 123.118 128.581C128.353 128.581 129.4 125.591 129.4 125.591V116.083L114.742 116.085Z" fill="#B5794D"/>
<path id="Path 14636" d="M114.742 116.085V120.571C114.742 120.571 119.679 123.951 129.4 122.614V116.087L114.742 116.085Z" fill="#B5794D"/>
</g>
<g id="Group 12896">
<path id="Path 14632" d="M104.68 104.537C104.68 104.537 105.077 118.578 120.43 119.508C135.782 120.439 140.262 102.009 140.262 102.009V81.7874C140.262 81.7874 117.707 80.8156 104.68 104.537" fill="#B5794D"/>
<path id="Path 14633" d="M104.68 104.537C104.799 106.233 105.171 107.902 105.783 109.488C116.741 95.5955 125.296 87.8178 140.262 88.1398V81.7863C140.262 81.7863 117.707 80.8145 104.68 104.536" fill="#B5794D"/>
</g>
<path id="Path 14631" d="M95.346 90.7309C95.346 90.7309 92.2352 92.0919 88.3463 89.7587C87.9571 93.6461 92.818 106.481 106.429 106.87C110.316 96.3698 123.929 85.287 137.54 85.87C137.15 95.5918 137.54 122.619 137.54 122.619C137.54 122.619 146.095 105.508 146.289 92.8693C146.484 80.2307 138.511 65.8422 120.234 65.8422C98.066 66.231 95.346 90.7309 95.346 90.7309Z" fill="black"/>
</g>
<g id="Group 12901">
<path id="Rectangle 2356" d="M94.1787 163.397H145.441C145.894 163.397 146.329 163.577 146.649 163.897C146.969 164.218 147.149 164.652 147.149 165.106C147.149 165.559 146.969 165.993 146.649 166.314C146.329 166.634 145.894 166.814 145.441 166.814H94.1787C93.9543 166.814 93.7321 166.77 93.5248 166.684C93.3175 166.598 93.1291 166.473 92.9704 166.314C92.8118 166.155 92.6859 165.967 92.6 165.76C92.5142 165.552 92.47 165.33 92.47 165.106C92.47 164.881 92.5142 164.659 92.6 164.452C92.6859 164.244 92.8118 164.056 92.9705 163.897C93.1291 163.739 93.3175 163.613 93.5248 163.527C93.7321 163.441 93.9543 163.397 94.1787 163.397Z" fill="#291B60"/>
<path id="Rectangle 2357" d="M102.295 172.795H137.324C137.777 172.795 138.212 172.975 138.532 173.295C138.853 173.616 139.033 174.05 139.033 174.504C139.033 174.957 138.853 175.391 138.532 175.712C138.212 176.032 137.777 176.212 137.324 176.212H102.295C102.071 176.212 101.849 176.168 101.641 176.082C101.434 175.996 101.246 175.871 101.087 175.712C100.928 175.553 100.802 175.365 100.716 175.158C100.631 174.95 100.586 174.728 100.586 174.504C100.586 174.279 100.631 174.057 100.716 173.85C100.802 173.642 100.928 173.454 101.087 173.295C101.246 173.137 101.434 173.011 101.641 172.925C101.849 172.839 102.071 172.795 102.295 172.795Z" fill="#291B60"/>
</g>
</g>
</g>
</g>
</svg>
