<svg width="26" height="26" viewBox="0 0 26 26" fill="none" xmlns="http://www.w3.org/2000/svg">
<g id="bell">
<path id="Vector" d="M13 23.8333C14.1917 23.8333 15.1667 22.8583 15.1667 21.6667H10.8334C10.8334 22.8583 11.8084 23.8333 13 23.8333ZM19.5 17.3333V11.9167C19.5 8.59083 17.7342 5.80666 14.625 5.06999V4.33333C14.625 3.43416 13.8992 2.70833 13 2.70833C12.1009 2.70833 11.375 3.43416 11.375 4.33333V5.06999C8.27671 5.80666 6.50004 8.58 6.50004 11.9167V17.3333L4.33337 19.5V20.5833H21.6667V19.5L19.5 17.3333ZM17.3334 18.4167H8.66671V11.9167C8.66671 9.23 10.3025 7.04166 13 7.04166C15.6975 7.04166 17.3334 9.23 17.3334 11.9167V18.4167Z" fill="#FB6039"/>
</g>
</svg>
