<svg width="20" height="23" viewBox="0 0 20 23" fill="none" xmlns="http://www.w3.org/2000/svg">
<g id="Icons/Bottom Nav Bar/Inactive/invest">
<g id="Group">
<g id="Group_2">
<path id="Vector" d="M8.51839 3.57144C4.01826 3.57144 0.357117 7.23259 0.357117 11.7327C0.357117 12.2314 0.357117 16.0893 0.357117 16.1579C0.357117 17.058 1.08935 17.7902 1.98937 17.7902H2.62704C2.85164 18.4234 3.45641 18.8784 4.16571 18.8784C5.06574 18.8784 5.79797 18.1461 5.79797 17.2461V12.8209C5.79797 11.9209 5.06574 11.1886 4.16571 11.1886C3.45641 11.1886 2.85164 11.6436 2.62704 12.2768H1.98937C1.79861 12.2768 1.61558 12.31 1.44529 12.3704V11.7327C1.44529 7.8326 4.61828 4.65961 8.51839 4.65961C12.4185 4.65961 15.5915 7.8326 15.5915 11.7327V12.3704C15.4212 12.31 15.2382 12.2768 15.0474 12.2768H14.4097C14.1851 11.6436 13.5804 11.1886 12.8711 11.1886C11.971 11.1886 11.2388 11.9209 11.2388 12.8209V17.2461C11.2388 18.1461 11.971 18.8784 12.8711 18.8784C13.0358 18.8784 13.1948 18.8536 13.3448 18.808C13.1413 19.4777 12.5182 19.9665 11.7829 19.9665H10.0571C9.83246 19.3333 9.22769 18.8784 8.51839 18.8784C7.61836 18.8784 6.88613 19.6106 6.88613 20.5106C6.88613 21.4106 7.61836 22.1429 8.51839 22.1429C9.22769 22.1429 9.83246 21.6879 10.0571 21.0547H11.7829C13.2829 21.0547 14.5033 19.8343 14.5033 18.3343V17.7902H15.0474C15.9474 17.7902 16.6797 17.058 16.6797 16.1579C16.6797 16.0903 16.6797 12.231 16.6797 11.7327C16.6797 7.23259 13.0185 3.57144 8.51839 3.57144ZM3.62163 12.8209C3.62163 12.5209 3.8657 12.2768 4.16571 12.2768C4.46572 12.2768 4.70979 12.5209 4.70979 12.8209V17.2461C4.70979 17.5461 4.46572 17.7902 4.16571 17.7902C3.8657 17.7902 3.62163 17.5461 3.62163 17.2461V12.8209ZM1.98937 13.365H2.53346V16.702H1.98937C1.68936 16.702 1.44529 16.4579 1.44529 16.1579V13.9091C1.44529 13.609 1.68936 13.365 1.98937 13.365ZM8.51839 21.0547C8.21838 21.0547 7.9743 20.8106 7.9743 20.5106C7.9743 20.2106 8.21838 19.9665 8.51839 19.9665C8.8184 19.9665 9.06247 20.2106 9.06247 20.5106C9.06247 20.8106 8.8184 21.0547 8.51839 21.0547ZM13.4152 17.2461C13.4152 17.5461 13.1711 17.7902 12.8711 17.7902C12.5711 17.7902 12.327 17.5461 12.327 17.2461V12.8209C12.327 12.5209 12.5711 12.2768 12.8711 12.2768C13.1711 12.2768 13.4152 12.5209 13.4152 12.8209V17.2461ZM15.5915 16.1579C15.5915 16.4579 15.3474 16.702 15.0474 16.702H14.5033V13.365H15.0474C15.3474 13.365 15.5915 13.609 15.5915 13.9091V16.1579Z" fill="#F91E5A"/>
</g>
</g>
</g>
</svg>
