<svg width="40" height="40" viewBox="0 0 40 40" fill="none" xmlns="http://www.w3.org/2000/svg">
<g id="icon">
<rect width="40" height="40" rx="12" fill="#F9FAFB"/>
<g id="Iconly/Light-Outline/Unlock">
<g id="Unlock">
<path id="Combined-Shape" fill-rule="evenodd" clip-rule="evenodd" d="M20.0084 12C21.627 12 23.0719 13.1464 23.6021 14.8535C23.6997 15.1663 23.5504 15.5079 23.2692 15.6167C22.9887 15.7263 22.6823 15.5591 22.5847 15.2455C22.2052 14.0223 21.1685 13.2 20.0062 13.2H19.9962C18.4953 13.2 17.2728 14.5551 17.2663 16.2271L17.2658 17.3006L22.7414 17.3012C24.5378 17.3012 26 18.9315 26 20.9354V24.3657C26 26.3697 24.5378 28 22.7414 28H17.2586C15.4614 28 14 26.3697 14 24.3657V20.9354C14 19.3488 14.9162 17.9963 16.1898 17.5019L16.1901 16.2407C16.1995 13.8903 17.9041 12 19.994 12H20.0084ZM22.7414 18.5011H17.2586C16.0548 18.5011 15.0762 19.5931 15.0762 20.9354V24.3657C15.0762 25.7081 16.0548 26.8 17.2586 26.8H22.7414C23.9445 26.8 24.9238 25.7081 24.9238 24.3657V20.9354C24.9238 19.5931 23.9445 18.5011 22.7414 18.5011ZM20.0002 21.1617C20.2972 21.1617 20.5383 21.4305 20.5383 21.7617V23.5392C20.5383 23.8704 20.2972 24.1392 20.0002 24.1392C19.7032 24.1392 19.4621 23.8704 19.4621 23.5392V21.7617C19.4621 21.4305 19.7032 21.1617 20.0002 21.1617Z" fill="#2969FF"/>
</g>
</g>
</g>
</svg>
