<svg width="26" height="27" viewBox="0 0 26 27" fill="none" xmlns="http://www.w3.org/2000/svg">
<g id="Whatsapp" clip-path="url(#clip0_637_1904)">
<path id="Vector" d="M22.2112 3.79503C19.767 1.3492 16.517 0.00149226 13.0544 0C5.9191 0 0.11239 5.80485 0.109534 12.9398C0.108702 15.2206 0.704626 17.4469 1.83732 19.4093L0.000854492 26.1149L6.86308 24.3155C8.75375 25.3466 10.8825 25.89 13.0488 25.8909H13.0543H13.0544C20.1886 25.8909 25.9961 20.085 25.9992 12.9503C26.0004 9.49238 24.655 6.24104 22.2112 3.79503ZM13.0544 23.7053H13.0502C11.1193 23.7042 9.22571 23.1858 7.57408 22.2058L7.18102 21.9728L3.10883 23.0404L4.19605 19.0715L3.93995 18.6646C2.86286 16.952 2.29425 14.9729 2.29506 12.9407C2.29742 7.0103 7.12374 2.18567 13.0585 2.18567C15.9324 2.18687 18.6335 3.30708 20.665 5.33999C22.6964 7.37288 23.8143 10.0753 23.8135 12.9494C23.8109 18.88 18.9845 23.7053 13.0544 23.7053Z" fill="#E0E0E0"/>
<path id="Vector_2" d="M0.595093 25.3709L2.34767 18.9716C1.26644 17.0988 0.697846 14.974 0.698528 12.7979C0.701363 5.98896 6.24287 0.449432 13.0517 0.449432C16.3563 0.450925 19.4579 1.737 21.7899 4.07117C24.1224 6.40532 25.4061 9.50792 25.4048 12.8075C25.4019 19.6166 19.8601 25.1567 13.0521 25.1567C13.0517 25.1567 13.0525 25.1567 13.0521 25.1567H13.0466C10.9793 25.156 8.94792 24.637 7.14373 23.6537L0.595093 25.3709Z" fill="url(#paint0_linear_637_1904)"/>
<path id="Vector_3" fill-rule="evenodd" clip-rule="evenodd" d="M9.85559 7.44625C9.6161 6.91379 9.36395 6.90313 9.1361 6.89382C8.94974 6.88582 8.73639 6.88631 8.52338 6.88631C8.3102 6.88631 7.96378 6.96643 7.67083 7.28637C7.37771 7.60631 6.55164 8.37975 6.55164 9.95278C6.55164 11.526 7.69748 13.0461 7.85719 13.2596C8.01708 13.4727 10.0691 16.804 13.3189 18.0856C16.0198 19.1507 16.5694 18.9388 17.1557 18.8855C17.7419 18.8322 19.0473 18.1122 19.3138 17.3656C19.5803 16.6191 19.5803 15.9793 19.5003 15.8455C19.4204 15.7123 19.2072 15.6323 18.8874 15.4725C18.5677 15.3126 16.9958 14.539 16.7027 14.4324C16.4096 14.3258 16.1964 14.2725 15.9832 14.5926C15.77 14.9124 15.1576 15.6323 14.9711 15.8455C14.7845 16.0592 14.598 16.0858 14.2782 15.926C13.9585 15.7656 12.9287 15.4283 11.7071 14.3391C10.7566 13.4917 10.1149 12.4451 9.92837 12.125C9.74183 11.8053 9.90837 11.632 10.0688 11.4726C10.2123 11.3294 10.3885 11.0994 10.5484 10.9127C10.708 10.726 10.7613 10.5928 10.8679 10.3796C10.9744 10.1661 10.9211 9.97939 10.8412 9.8195C10.7613 9.65961 10.1399 8.07846 9.85559 7.44625Z" fill="white"/>
<path id="Vector_4" d="M22.1054 3.75391C19.6893 1.33615 16.4766 0.00393973 13.0538 0.00242615C6.00036 0.00242615 0.260312 5.74064 0.257476 12.7937C0.256645 15.0483 0.845726 17.249 1.96541 19.189L0.150055 25.8175L6.93351 24.0388C8.8025 25.0581 10.9068 25.5952 13.0483 25.596H13.0537H13.0538C20.106 25.596 25.8469 19.8568 25.8499 12.804C25.8511 9.38585 24.5212 6.17184 22.1054 3.75391ZM13.0538 23.4356H13.0496C11.1408 23.4346 9.26901 22.9221 7.63634 21.9533L7.24778 21.723L3.22234 22.7784L4.29707 18.8551L4.04392 18.4528C2.97919 16.7599 2.4171 14.8035 2.41793 12.7946C2.42025 6.93229 7.19116 2.16305 13.0578 2.16305C15.8988 2.16422 18.5688 3.27159 20.5771 5.28115C22.5851 7.29071 23.6902 9.96212 23.6893 12.8033C23.6868 18.6657 18.9157 23.4356 13.0538 23.4356Z" fill="white"/>
</g>
<defs>
<linearGradient id="paint0_linear_637_1904" x1="12.9999" y1="25.3709" x2="12.9999" y2="0.449474" gradientUnits="userSpaceOnUse">
<stop stop-color="#20B038"/>
<stop offset="1" stop-color="#60D66A"/>
</linearGradient>
<clipPath id="clip0_637_1904">
<rect width="26" height="26.1149" fill="white"/>
</clipPath>
</defs>
</svg>
